G04 #@! TF.GenerationSoftware,KiCad,Pcbnew,(6.0.4)*
G04 #@! TF.CreationDate,2022-04-09T08:52:06+02:00*
G04 #@! TF.ProjectId,pcb-ihc_kicad,7063622d-6968-4635-9f6b-696361642e6b,rev?*
G04 #@! TF.SameCoordinates,Original*
G04 #@! TF.FileFunction,Copper,L2,Bot*
G04 #@! TF.FilePolarity,Positive*
%FSLAX46Y46*%
G04 Gerber Fmt 4.6, Leading zero omitted, Abs format (unit mm)*
G04 Created by KiCad (PCBNEW (6.0.4)) date 2022-04-09 08:52:06*
%MOMM*%
%LPD*%
G01*
G04 APERTURE LIST*
G04 #@! TA.AperFunction,ComponentPad*
%ADD10C,2.300000*%
G04 #@! TD*
G04 #@! TA.AperFunction,ComponentPad*
%ADD11O,2.000000X3.000000*%
G04 #@! TD*
G04 #@! TA.AperFunction,ComponentPad*
%ADD12R,3.000000X2.000000*%
G04 #@! TD*
G04 #@! TA.AperFunction,ComponentPad*
%ADD13O,3.000000X2.000000*%
G04 #@! TD*
G04 #@! TA.AperFunction,ComponentPad*
%ADD14C,1.800000*%
G04 #@! TD*
G04 #@! TA.AperFunction,ComponentPad*
%ADD15C,5.000000*%
G04 #@! TD*
G04 #@! TA.AperFunction,ComponentPad*
%ADD16R,1.800000X1.800000*%
G04 #@! TD*
G04 #@! TA.AperFunction,ComponentPad*
%ADD17R,1.600000X1.600000*%
G04 #@! TD*
G04 #@! TA.AperFunction,ComponentPad*
%ADD18C,1.600000*%
G04 #@! TD*
G04 #@! TA.AperFunction,ComponentPad*
%ADD19O,1.600000X1.600000*%
G04 #@! TD*
G04 #@! TA.AperFunction,ComponentPad*
%ADD20C,2.000000*%
G04 #@! TD*
G04 #@! TA.AperFunction,ComponentPad*
%ADD21R,1.905000X2.000000*%
G04 #@! TD*
G04 #@! TA.AperFunction,ComponentPad*
%ADD22O,1.905000X2.000000*%
G04 #@! TD*
G04 #@! TA.AperFunction,ComponentPad*
%ADD23R,1.500000X3.000000*%
G04 #@! TD*
G04 #@! TA.AperFunction,ComponentPad*
%ADD24O,1.500000X3.000000*%
G04 #@! TD*
G04 #@! TA.AperFunction,ComponentPad*
%ADD25R,2.000000X2.000000*%
G04 #@! TD*
G04 #@! TA.AperFunction,ComponentPad*
%ADD26R,2.400000X1.600000*%
G04 #@! TD*
G04 #@! TA.AperFunction,ComponentPad*
%ADD27O,2.400000X1.600000*%
G04 #@! TD*
G04 #@! TA.AperFunction,ComponentPad*
%ADD28R,2.000000X1.905000*%
G04 #@! TD*
G04 #@! TA.AperFunction,ComponentPad*
%ADD29O,2.000000X1.905000*%
G04 #@! TD*
G04 #@! TA.AperFunction,ViaPad*
%ADD30C,2.500000*%
G04 #@! TD*
G04 #@! TA.AperFunction,Conductor*
%ADD31C,2.000000*%
G04 #@! TD*
G04 #@! TA.AperFunction,Conductor*
%ADD32C,1.500000*%
G04 #@! TD*
G04 #@! TA.AperFunction,Conductor*
%ADD33C,5.000000*%
G04 #@! TD*
G04 #@! TA.AperFunction,Conductor*
%ADD34C,3.000000*%
G04 #@! TD*
G04 #@! TA.AperFunction,Conductor*
%ADD35C,3.500000*%
G04 #@! TD*
G04 #@! TA.AperFunction,Conductor*
%ADD36C,2.500000*%
G04 #@! TD*
G04 APERTURE END LIST*
D10*
X83900000Y-42672000D03*
X93900000Y-42672000D03*
D11*
X141462766Y-146954233D03*
X141462766Y-154454233D03*
X136422766Y-154454233D03*
X136422766Y-146954233D03*
X146502766Y-154454233D03*
X146502766Y-146954233D03*
D12*
X121162766Y-154454233D03*
D13*
X121162766Y-146954233D03*
D14*
X83900000Y-38608000D03*
X93900000Y-38608000D03*
X97900000Y-147200000D03*
X97900000Y-157200000D03*
D11*
X141478000Y-127448000D03*
X141478000Y-119948000D03*
X136438000Y-119948000D03*
X136438000Y-127448000D03*
X146518000Y-127448000D03*
X146518000Y-119948000D03*
D12*
X121178000Y-127448000D03*
D13*
X121178000Y-119948000D03*
D15*
X159496766Y-150984233D03*
X151496766Y-150984233D03*
D16*
X88138000Y-59436000D03*
D14*
X90678000Y-59436000D03*
D17*
X128778000Y-34290000D03*
D18*
X128778000Y-39290000D03*
D17*
X90932000Y-101092000D03*
D19*
X90932000Y-98552000D03*
X90932000Y-96012000D03*
X90932000Y-93472000D03*
X90932000Y-90932000D03*
X90932000Y-88392000D03*
X90932000Y-85852000D03*
X90932000Y-83312000D03*
X90932000Y-80772000D03*
X90932000Y-78232000D03*
X90932000Y-75692000D03*
X90932000Y-73152000D03*
X90932000Y-70612000D03*
X90932000Y-68072000D03*
X83312000Y-68072000D03*
X83312000Y-70612000D03*
X83312000Y-73152000D03*
X83312000Y-75692000D03*
X83312000Y-78232000D03*
X83312000Y-80772000D03*
X83312000Y-83312000D03*
X83312000Y-85852000D03*
X83312000Y-88392000D03*
X83312000Y-90932000D03*
X83312000Y-93472000D03*
X83312000Y-96012000D03*
X83312000Y-98552000D03*
X83312000Y-101092000D03*
D18*
X128778000Y-26884000D03*
X128778000Y-21884000D03*
D14*
X69776000Y-34524000D03*
X79776000Y-34524000D03*
X98124000Y-38628000D03*
X108124000Y-38628000D03*
D18*
X99300000Y-105200000D03*
X94300000Y-105200000D03*
D20*
X71882000Y-73152000D03*
X69342000Y-73152000D03*
X71882000Y-70612000D03*
X69342000Y-70612000D03*
X71882000Y-68072000D03*
X69342000Y-68072000D03*
X71882000Y-65532000D03*
X69342000Y-65532000D03*
X71882000Y-62992000D03*
X69342000Y-62992000D03*
D14*
X149940000Y-34462000D03*
X159940000Y-34462000D03*
D15*
X159400000Y-123718000D03*
X151400000Y-123718000D03*
D10*
X146224000Y-38862000D03*
X136224000Y-38862000D03*
D11*
X141478000Y-100457000D03*
X141478000Y-92957000D03*
X136438000Y-92957000D03*
X136438000Y-100457000D03*
X146518000Y-92957000D03*
X146518000Y-100457000D03*
D12*
X121178000Y-100457000D03*
D13*
X121178000Y-92957000D03*
D21*
X101854000Y-131501000D03*
D22*
X104394000Y-131501000D03*
X106934000Y-131501000D03*
D11*
X141438000Y-59944000D03*
X141438000Y-52444000D03*
X136398000Y-59944000D03*
X136398000Y-52444000D03*
X146478000Y-59944000D03*
X146478000Y-52444000D03*
D12*
X121138000Y-59944000D03*
D13*
X121138000Y-52444000D03*
D10*
X136224000Y-34544000D03*
X146224000Y-34544000D03*
D15*
X117856000Y-168800000D03*
X117856000Y-160800000D03*
D14*
X97235000Y-136271000D03*
X107235000Y-136271000D03*
D21*
X108320000Y-152600000D03*
D22*
X110860000Y-152600000D03*
X113400000Y-152600000D03*
D18*
X100370000Y-51328000D03*
X105370000Y-51328000D03*
X86273000Y-50546000D03*
X91273000Y-50546000D03*
D10*
X93900000Y-46736000D03*
X83900000Y-46736000D03*
D15*
X151400000Y-69683000D03*
X159400000Y-69683000D03*
D14*
X94488000Y-70612000D03*
X94488000Y-60612000D03*
X67800000Y-147200000D03*
X67800000Y-157200000D03*
X75400000Y-147200000D03*
X75400000Y-157200000D03*
D11*
X141478000Y-140970000D03*
X141478000Y-133470000D03*
X136438000Y-140970000D03*
X136438000Y-133470000D03*
X146518000Y-140970000D03*
X146518000Y-133470000D03*
D12*
X121178000Y-140970000D03*
D13*
X121178000Y-133470000D03*
D10*
X101600000Y-152146000D03*
X101600000Y-142146000D03*
D14*
X82800000Y-147200000D03*
X82800000Y-157200000D03*
D15*
X151339000Y-46220000D03*
X159339000Y-46220000D03*
D18*
X111252000Y-20574000D03*
X111252000Y-25574000D03*
D15*
X148600000Y-160775000D03*
X148600000Y-168775000D03*
D23*
X145004000Y-26368000D03*
X145004000Y-21368000D03*
D24*
X150004000Y-21368000D03*
X150004000Y-26368000D03*
X155004000Y-21368000D03*
X155004000Y-26368000D03*
X160004000Y-21368000D03*
X160004000Y-26368000D03*
D11*
X141478000Y-66033000D03*
X141478000Y-73533000D03*
X136438000Y-66033000D03*
X136438000Y-73533000D03*
X146518000Y-73533000D03*
X146518000Y-66033000D03*
D12*
X121178000Y-73533000D03*
D13*
X121178000Y-66033000D03*
D14*
X88336000Y-111200000D03*
X88336000Y-121200000D03*
D10*
X86614000Y-152146000D03*
X86614000Y-142146000D03*
X69776000Y-46736000D03*
X79776000Y-46736000D03*
D14*
X108124000Y-34544000D03*
X98124000Y-34544000D03*
D10*
X79776000Y-42672000D03*
X69776000Y-42672000D03*
D25*
X102870000Y-64668400D03*
D20*
X110470000Y-64668400D03*
D14*
X86960000Y-125476000D03*
X96960000Y-125476000D03*
D10*
X98124000Y-42692000D03*
X108124000Y-42692000D03*
D18*
X77216000Y-50546000D03*
X72216000Y-50546000D03*
D23*
X141450000Y-163370000D03*
X141450000Y-168370000D03*
D24*
X136450000Y-168370000D03*
X136450000Y-163370000D03*
X131450000Y-168370000D03*
X131450000Y-163370000D03*
X126450000Y-163370000D03*
X126450000Y-168370000D03*
D23*
X110490000Y-168402000D03*
X110490000Y-163402000D03*
D24*
X105490000Y-163402000D03*
X105490000Y-168402000D03*
D23*
X83028000Y-21622000D03*
X83028000Y-26622000D03*
D24*
X88028000Y-26622000D03*
X88028000Y-21622000D03*
X93028000Y-26622000D03*
X93028000Y-21622000D03*
X98028000Y-26622000D03*
X98028000Y-21622000D03*
D11*
X141478000Y-79495000D03*
X141478000Y-86995000D03*
X136438000Y-79495000D03*
X136438000Y-86995000D03*
X146518000Y-86995000D03*
X146518000Y-79495000D03*
D12*
X121178000Y-86995000D03*
D13*
X121178000Y-79495000D03*
D18*
X78740000Y-85812000D03*
X78740000Y-80812000D03*
D10*
X94234000Y-152146000D03*
X94234000Y-142146000D03*
D23*
X96400000Y-163400000D03*
X96400000Y-168400000D03*
D24*
X91400000Y-163400000D03*
X91400000Y-168400000D03*
X86400000Y-168400000D03*
X86400000Y-163400000D03*
X81400000Y-163400000D03*
X81400000Y-168400000D03*
X76400000Y-168400000D03*
X76400000Y-163400000D03*
X71400000Y-163400000D03*
X71400000Y-168400000D03*
D26*
X99299000Y-80772000D03*
D27*
X99299000Y-83312000D03*
X99299000Y-85852000D03*
X99299000Y-88392000D03*
X99299000Y-90932000D03*
X99299000Y-93472000D03*
X99299000Y-96012000D03*
X99299000Y-98552000D03*
X99299000Y-101092000D03*
X106919000Y-101092000D03*
X106919000Y-98552000D03*
X106919000Y-96012000D03*
X106919000Y-93472000D03*
X106919000Y-90932000D03*
X106919000Y-88392000D03*
X106919000Y-85852000D03*
X106919000Y-83312000D03*
X106919000Y-80772000D03*
D15*
X151360000Y-56064000D03*
X159360000Y-56064000D03*
D14*
X79776000Y-38608000D03*
X69776000Y-38608000D03*
X149940000Y-38862000D03*
X159940000Y-38862000D03*
D28*
X120142000Y-25654000D03*
D29*
X120142000Y-23114000D03*
X120142000Y-20574000D03*
D10*
X108124000Y-46756000D03*
X98124000Y-46756000D03*
D14*
X94526000Y-86007000D03*
X94526000Y-101007000D03*
D10*
X71628000Y-152146000D03*
X71628000Y-142146000D03*
D15*
X151400000Y-96667000D03*
X159400000Y-96667000D03*
D14*
X99648000Y-125476000D03*
X109648000Y-125476000D03*
D15*
X151400000Y-83175000D03*
X159400000Y-83175000D03*
D10*
X79200000Y-152146000D03*
X79200000Y-142146000D03*
D15*
X159400000Y-110159000D03*
X151400000Y-110159000D03*
D11*
X141478000Y-106419000D03*
X141478000Y-113919000D03*
X136438000Y-106419000D03*
X136438000Y-113919000D03*
X146518000Y-113919000D03*
X146518000Y-106419000D03*
D12*
X121178000Y-113919000D03*
D13*
X121178000Y-106419000D03*
D14*
X90400000Y-147200000D03*
X90400000Y-157200000D03*
D10*
X92400000Y-111200000D03*
X92400000Y-121200000D03*
D14*
X93900000Y-34524000D03*
X83900000Y-34524000D03*
X107268000Y-147320000D03*
X117268000Y-147320000D03*
D18*
X100600000Y-114300000D03*
X100600000Y-119300000D03*
D14*
X117500000Y-111400000D03*
X102500000Y-111400000D03*
D10*
X96464000Y-111200000D03*
X96464000Y-121200000D03*
D15*
X159400000Y-137270000D03*
X151400000Y-137270000D03*
D30*
X95097600Y-55727600D03*
X101498400Y-55676800D03*
X106869020Y-107696000D03*
X117475000Y-107696000D03*
X75043500Y-83058000D03*
X67958500Y-83058000D03*
X78853500Y-75692000D03*
X78923594Y-70752500D03*
X85720000Y-64230000D03*
X76454000Y-64267078D03*
X90932000Y-105156000D03*
X76454000Y-68072000D03*
D31*
X111252000Y-25574000D02*
X111252000Y-26162000D01*
X98028000Y-26622000D02*
X110792000Y-26622000D01*
D32*
X69776000Y-50874000D02*
X69776000Y-62558000D01*
X78740000Y-85812000D02*
X83272000Y-85812000D01*
D33*
X117856000Y-160800000D02*
X117856000Y-168800000D01*
D34*
X126450000Y-168370000D02*
X126450000Y-165650000D01*
D31*
X129206000Y-38862000D02*
X128778000Y-39290000D01*
D32*
X101600000Y-152146000D02*
X94234000Y-152146000D01*
D31*
X71882000Y-70612000D02*
X69342000Y-70612000D01*
D32*
X79200000Y-152146000D02*
X71628000Y-152146000D01*
X70104000Y-50546000D02*
X69776000Y-50874000D01*
D31*
X108124000Y-46756000D02*
X110256000Y-46756000D01*
D34*
X96400000Y-168400000D02*
X96400000Y-170314000D01*
D31*
X117348000Y-23114000D02*
X120142000Y-23114000D01*
D32*
X72898000Y-38608000D02*
X74676000Y-36830000D01*
X69776000Y-38608000D02*
X69776000Y-42672000D01*
D31*
X110470000Y-64668400D02*
X110470000Y-55733000D01*
D32*
X89800630Y-83312000D02*
X88138000Y-81649370D01*
X92400000Y-121200000D02*
X96464000Y-121200000D01*
D31*
X105664000Y-110744000D02*
X100120000Y-105200000D01*
D32*
X86280000Y-30988000D02*
X93900000Y-38608000D01*
X100600000Y-119300000D02*
X98364000Y-119300000D01*
X100600000Y-119300000D02*
X105584000Y-119300000D01*
X117268000Y-147320000D02*
X114681000Y-147320000D01*
X127548000Y-23114000D02*
X128778000Y-21884000D01*
X88138000Y-59436000D02*
X88138000Y-81649370D01*
X110430000Y-51328000D02*
X110470000Y-51288000D01*
D31*
X110470000Y-55733000D02*
X110470000Y-51288000D01*
D32*
X74676000Y-33528000D02*
X77216000Y-30988000D01*
D31*
X110470000Y-70251000D02*
X110470000Y-64668400D01*
D34*
X123880000Y-160800000D02*
X117856000Y-160800000D01*
D31*
X115824000Y-24638000D02*
X117348000Y-23114000D01*
D32*
X77216000Y-30988000D02*
X86280000Y-30988000D01*
X93268800Y-50546000D02*
X93900000Y-51177200D01*
D34*
X114112020Y-157056020D02*
X114112020Y-147888980D01*
D32*
X86614000Y-152146000D02*
X94234000Y-152146000D01*
D31*
X111252000Y-26162000D02*
X110792000Y-26622000D01*
D34*
X114112020Y-147888980D02*
X114112020Y-137967000D01*
D31*
X69342000Y-65532000D02*
X69342000Y-62992000D01*
X110343000Y-38628000D02*
X110470000Y-38755000D01*
X108124000Y-38628000D02*
X110343000Y-38628000D01*
D32*
X74676000Y-36830000D02*
X74676000Y-33528000D01*
X95097600Y-55727600D02*
X95072200Y-55753000D01*
D31*
X117348000Y-31877000D02*
X115824000Y-30353000D01*
X99300000Y-101093000D02*
X99299000Y-101092000D01*
D34*
X96400000Y-168400000D02*
X96400000Y-163400000D01*
D32*
X105584000Y-119300000D02*
X105664000Y-119380000D01*
D31*
X115824000Y-26289000D02*
X115824000Y-24638000D01*
D32*
X89941400Y-55727600D02*
X88138000Y-57531000D01*
D31*
X110470000Y-46970000D02*
X110470000Y-42184000D01*
X110470000Y-42184000D02*
X110470000Y-38755000D01*
D32*
X93900000Y-54530000D02*
X93900000Y-51177200D01*
D34*
X98298000Y-172212000D02*
X114444000Y-172212000D01*
D32*
X88138000Y-57531000D02*
X88138000Y-59436000D01*
X101498400Y-55676800D02*
X110413800Y-55676800D01*
D34*
X126450000Y-163370000D02*
X123880000Y-160800000D01*
D32*
X98364000Y-119300000D02*
X96464000Y-121200000D01*
X93900000Y-46736000D02*
X93900000Y-47919000D01*
D31*
X105664000Y-121492000D02*
X105664000Y-119380000D01*
X105664000Y-119380000D02*
X105664000Y-110744000D01*
D32*
X69776000Y-46736000D02*
X69776000Y-50874000D01*
D31*
X99300000Y-105200000D02*
X99300000Y-101093000D01*
D32*
X120142000Y-23114000D02*
X127548000Y-23114000D01*
D34*
X131149000Y-165650000D02*
X131450000Y-165349000D01*
D31*
X110470000Y-38755000D02*
X117348000Y-31877000D01*
D34*
X114112020Y-137967000D02*
X107646020Y-131501000D01*
X131450000Y-165349000D02*
X131450000Y-163370000D01*
D31*
X115491000Y-26622000D02*
X115824000Y-26289000D01*
X110792000Y-26622000D02*
X115491000Y-26622000D01*
D32*
X91273000Y-50546000D02*
X93268800Y-50546000D01*
D31*
X109648000Y-125476000D02*
X105664000Y-121492000D01*
X99299000Y-101092000D02*
X100269591Y-101092000D01*
X98028000Y-26622000D02*
X98028000Y-21622000D01*
D32*
X83272000Y-85812000D02*
X83312000Y-85852000D01*
D31*
X108124000Y-42692000D02*
X109962000Y-42692000D01*
D34*
X126450000Y-165650000D02*
X126450000Y-163370000D01*
D31*
X110470000Y-51288000D02*
X110470000Y-46970000D01*
D32*
X69776000Y-38608000D02*
X72898000Y-38608000D01*
X88336000Y-121200000D02*
X92400000Y-121200000D01*
D31*
X69342000Y-68072000D02*
X69342000Y-65532000D01*
X136224000Y-38862000D02*
X129206000Y-38862000D01*
D34*
X117856000Y-160800000D02*
X114112020Y-157056020D01*
D31*
X115824000Y-30353000D02*
X115824000Y-26289000D01*
D32*
X95097600Y-55727600D02*
X89941400Y-55727600D01*
D34*
X131450000Y-168370000D02*
X131450000Y-165349000D01*
D31*
X110256000Y-46756000D02*
X110470000Y-46970000D01*
X102870000Y-77851000D02*
X110470000Y-70251000D01*
D32*
X105370000Y-51328000D02*
X110430000Y-51328000D01*
X72216000Y-50546000D02*
X70104000Y-50546000D01*
D31*
X69342000Y-70612000D02*
X69342000Y-68072000D01*
D32*
X101600000Y-158200000D02*
X96400000Y-163400000D01*
D31*
X109648000Y-129499020D02*
X109648000Y-125476000D01*
D32*
X95097600Y-55727600D02*
X93900000Y-54530000D01*
X90932000Y-83312000D02*
X89800630Y-83312000D01*
D31*
X124761000Y-39290000D02*
X117348000Y-31877000D01*
D32*
X114681000Y-147320000D02*
X114112020Y-147888980D01*
X86614000Y-152146000D02*
X79200000Y-152146000D01*
D31*
X100120000Y-105200000D02*
X99300000Y-105200000D01*
X102870000Y-98491591D02*
X102870000Y-77851000D01*
D32*
X110413800Y-55676800D02*
X110470000Y-55733000D01*
D31*
X109962000Y-42692000D02*
X110470000Y-42184000D01*
D32*
X93900000Y-51177200D02*
X93900000Y-47919000D01*
D31*
X100269591Y-101092000D02*
X102870000Y-98491591D01*
D32*
X93900000Y-38608000D02*
X93900000Y-42672000D01*
X93900000Y-42672000D02*
X93900000Y-46736000D01*
D31*
X107646020Y-131501000D02*
X109648000Y-129499020D01*
D34*
X126450000Y-165650000D02*
X131149000Y-165650000D01*
D32*
X101600000Y-152146000D02*
X101600000Y-158200000D01*
D31*
X128778000Y-39290000D02*
X124761000Y-39290000D01*
D34*
X114444000Y-172212000D02*
X117856000Y-168800000D01*
D32*
X69776000Y-42672000D02*
X69776000Y-46736000D01*
D34*
X96400000Y-170314000D02*
X98298000Y-172212000D01*
D32*
X69776000Y-62558000D02*
X69342000Y-62992000D01*
X155004000Y-26368000D02*
X160004000Y-26368000D01*
D33*
X141478000Y-133470000D02*
X141478000Y-127448000D01*
D32*
X155004000Y-26368000D02*
X155004000Y-21368000D01*
D33*
X151339000Y-46220000D02*
X159339000Y-46220000D01*
D32*
X160004000Y-34398000D02*
X159940000Y-34462000D01*
X106869020Y-101141980D02*
X106919000Y-101092000D01*
D31*
X121178000Y-86995000D02*
X125095000Y-86995000D01*
D33*
X141478000Y-106419000D02*
X141478000Y-100457000D01*
X141462766Y-140985234D02*
X141478000Y-140970000D01*
D31*
X125222000Y-87122000D02*
X125222000Y-99822000D01*
D33*
X141478000Y-127448000D02*
X141478000Y-119948000D01*
X145064467Y-160775000D02*
X143020734Y-158731266D01*
X144534000Y-46220000D02*
X141438000Y-49316000D01*
D31*
X125222000Y-140716000D02*
X125222000Y-154178000D01*
X159940000Y-38862000D02*
X159940000Y-34462000D01*
X121178000Y-113919000D02*
X120019000Y-113919000D01*
X124968000Y-140970000D02*
X125222000Y-140716000D01*
X125222000Y-64028000D02*
X125222000Y-73914000D01*
X106869020Y-107696000D02*
X106869020Y-101141980D01*
D33*
X143020734Y-158731266D02*
X141462766Y-157173299D01*
D34*
X136450000Y-168370000D02*
X136450000Y-165660000D01*
D33*
X141462766Y-146954233D02*
X141462766Y-140985234D01*
D32*
X160004000Y-26368000D02*
X160004000Y-34398000D01*
D31*
X127743266Y-158731266D02*
X143020734Y-158731266D01*
D33*
X148600000Y-160775000D02*
X148600000Y-168775000D01*
D31*
X121178000Y-113919000D02*
X124841000Y-113919000D01*
D32*
X160004000Y-21368000D02*
X160004000Y-26368000D01*
D31*
X121178000Y-127448000D02*
X124654000Y-127448000D01*
D33*
X141478000Y-79495000D02*
X141478000Y-73533000D01*
X141478000Y-59984000D02*
X141438000Y-59944000D01*
D31*
X125222000Y-113538000D02*
X125222000Y-128016000D01*
X125095000Y-86995000D02*
X125222000Y-87122000D01*
D34*
X136450000Y-165660000D02*
X136450000Y-163370000D01*
D31*
X124945767Y-154454233D02*
X125222000Y-154178000D01*
X125222000Y-73914000D02*
X125222000Y-87122000D01*
X117500000Y-111400000D02*
X117500000Y-107721000D01*
D33*
X148600000Y-160775000D02*
X145064467Y-160775000D01*
D31*
X121178000Y-140970000D02*
X124968000Y-140970000D01*
D33*
X141478000Y-66033000D02*
X141478000Y-59984000D01*
D34*
X136450000Y-165660000D02*
X140895000Y-165660000D01*
D31*
X124841000Y-113919000D02*
X125222000Y-113538000D01*
X125222000Y-156210000D02*
X127743266Y-158731266D01*
D33*
X151339000Y-46220000D02*
X144534000Y-46220000D01*
D31*
X159940000Y-38862000D02*
X159940000Y-45619000D01*
D34*
X141450000Y-163370000D02*
X146005000Y-163370000D01*
D33*
X141478000Y-119948000D02*
X141478000Y-113919000D01*
D31*
X120019000Y-113919000D02*
X117500000Y-111400000D01*
D33*
X141478000Y-140970000D02*
X141478000Y-133470000D01*
D32*
X155004000Y-21368000D02*
X160004000Y-21368000D01*
D34*
X140895000Y-165660000D02*
X141450000Y-166215000D01*
D31*
X124841000Y-73533000D02*
X125222000Y-73914000D01*
D33*
X141478000Y-73533000D02*
X141478000Y-66033000D01*
D31*
X124654000Y-127448000D02*
X125222000Y-128016000D01*
D33*
X141462766Y-157173299D02*
X141462766Y-154454233D01*
D31*
X121162766Y-154454233D02*
X124945767Y-154454233D01*
X125222000Y-154178000D02*
X125222000Y-156210000D01*
X121178000Y-73533000D02*
X124841000Y-73533000D01*
X121138000Y-59944000D02*
X125222000Y-64028000D01*
X125222000Y-128016000D02*
X125222000Y-140716000D01*
X121178000Y-100457000D02*
X124587000Y-100457000D01*
D33*
X141438000Y-59944000D02*
X141438000Y-52444000D01*
D31*
X124587000Y-100457000D02*
X125222000Y-99822000D01*
D34*
X144045000Y-160775000D02*
X145064467Y-160775000D01*
D33*
X141478000Y-113919000D02*
X141478000Y-106419000D01*
D34*
X141450000Y-168370000D02*
X141450000Y-166215000D01*
D31*
X125222000Y-99822000D02*
X125222000Y-113538000D01*
D33*
X141478000Y-86995000D02*
X141478000Y-79495000D01*
X141438000Y-49316000D02*
X141438000Y-52444000D01*
X141478000Y-100457000D02*
X141478000Y-92957000D01*
D34*
X141450000Y-166215000D02*
X141450000Y-163370000D01*
D31*
X117500000Y-107721000D02*
X117475000Y-107696000D01*
D33*
X141478000Y-92957000D02*
X141478000Y-86995000D01*
D34*
X146005000Y-163370000D02*
X148600000Y-160775000D01*
D33*
X141462766Y-154454233D02*
X141462766Y-146954233D01*
D34*
X141450000Y-163370000D02*
X144045000Y-160775000D01*
D31*
X159940000Y-45619000D02*
X159339000Y-46220000D01*
D32*
X83312000Y-83312000D02*
X84328000Y-83312000D01*
X86868000Y-85852000D02*
X90932000Y-85852000D01*
X145004000Y-26368000D02*
X150004000Y-26368000D01*
X78740000Y-80812000D02*
X83272000Y-80812000D01*
X90932000Y-85852000D02*
X94371000Y-85852000D01*
X111252000Y-20574000D02*
X120142000Y-20574000D01*
X102362000Y-20574000D02*
X100330000Y-18542000D01*
X67056000Y-30607000D02*
X67056000Y-71365869D01*
X120142000Y-20574000D02*
X121920000Y-18796000D01*
X111252000Y-20574000D02*
X102362000Y-20574000D01*
X100330000Y-18542000D02*
X79121000Y-18542000D01*
X83272000Y-80812000D02*
X83312000Y-80772000D01*
X75043500Y-83058000D02*
X77289500Y-80812000D01*
X84328000Y-83312000D02*
X86868000Y-85852000D01*
X121920000Y-18796000D02*
X142432000Y-18796000D01*
X150004000Y-26368000D02*
X150004000Y-21368000D01*
X145004000Y-21368000D02*
X145004000Y-26368000D01*
X142432000Y-18796000D02*
X145004000Y-21368000D01*
X67056000Y-71365869D02*
X67056000Y-80010000D01*
X94371000Y-85852000D02*
X94526000Y-86007000D01*
X79121000Y-18542000D02*
X67056000Y-30607000D01*
X67056000Y-82155500D02*
X67958500Y-83058000D01*
X67056000Y-71365869D02*
X68842131Y-73152000D01*
X83312000Y-80772000D02*
X83312000Y-83312000D01*
X67056000Y-80010000D02*
X67056000Y-82155500D01*
X68842131Y-73152000D02*
X69342000Y-73152000D01*
X77289500Y-80812000D02*
X78740000Y-80812000D01*
X150004000Y-21368000D02*
X145004000Y-21368000D01*
D35*
X147740000Y-52444000D02*
X151360000Y-56064000D01*
X146478000Y-52444000D02*
X146478000Y-57190000D01*
D33*
X159360000Y-56064000D02*
X151360000Y-56064000D01*
D35*
X146478000Y-59944000D02*
X147480000Y-59944000D01*
X147604000Y-56064000D02*
X146478000Y-57190000D01*
X147480000Y-59944000D02*
X151360000Y-56064000D01*
X151360000Y-56064000D02*
X147604000Y-56064000D01*
X146478000Y-57190000D02*
X146478000Y-59944000D01*
X146518000Y-66033000D02*
X147750000Y-66033000D01*
X146518000Y-70779000D02*
X146518000Y-73533000D01*
X146518000Y-73533000D02*
X147550000Y-73533000D01*
X151400000Y-69683000D02*
X147614000Y-69683000D01*
X147614000Y-69683000D02*
X146518000Y-70779000D01*
X146518000Y-66033000D02*
X146518000Y-70779000D01*
D33*
X159400000Y-69683000D02*
X151400000Y-69683000D01*
D35*
X147550000Y-73533000D02*
X151400000Y-69683000D01*
X147750000Y-66033000D02*
X151400000Y-69683000D01*
X147584000Y-83175000D02*
X146518000Y-84241000D01*
X146518000Y-84241000D02*
X146518000Y-86995000D01*
X146518000Y-86995000D02*
X147580000Y-86995000D01*
X146518000Y-79495000D02*
X147720000Y-79495000D01*
X146518000Y-79495000D02*
X146518000Y-84241000D01*
X151400000Y-83175000D02*
X147584000Y-83175000D01*
X147720000Y-79495000D02*
X151400000Y-83175000D01*
X147580000Y-86995000D02*
X151400000Y-83175000D01*
D33*
X159400000Y-83175000D02*
X151400000Y-83175000D01*
D35*
X146518000Y-100457000D02*
X146518000Y-96433000D01*
X146518000Y-100457000D02*
X147610000Y-100457000D01*
X146752000Y-96667000D02*
X146518000Y-96433000D01*
X151400000Y-96667000D02*
X146752000Y-96667000D01*
D33*
X159400000Y-96667000D02*
X151400000Y-96667000D01*
D35*
X146518000Y-92957000D02*
X147690000Y-92957000D01*
X146518000Y-96433000D02*
X146518000Y-92957000D01*
X147690000Y-92957000D02*
X151400000Y-96667000D01*
X147610000Y-100457000D02*
X151400000Y-96667000D01*
X147640000Y-113919000D02*
X151400000Y-110159000D01*
X146518000Y-113919000D02*
X147640000Y-113919000D01*
D33*
X159400000Y-110159000D02*
X151400000Y-110159000D01*
D35*
X146518000Y-111673000D02*
X146518000Y-113919000D01*
X146518000Y-106419000D02*
X146518000Y-110149000D01*
X146518000Y-106419000D02*
X147660000Y-106419000D01*
X147660000Y-106419000D02*
X151400000Y-110159000D01*
X151400000Y-110159000D02*
X149886000Y-111673000D01*
X146518000Y-110149000D02*
X146518000Y-111673000D01*
X149886000Y-111673000D02*
X146518000Y-111673000D01*
X146528000Y-110159000D02*
X146518000Y-110149000D01*
X151400000Y-110159000D02*
X146528000Y-110159000D01*
X146518000Y-119948000D02*
X146518000Y-127448000D01*
D33*
X151400000Y-123718000D02*
X159400000Y-123718000D01*
D35*
X151400000Y-123718000D02*
X150248000Y-123718000D01*
X150288000Y-123718000D02*
X146518000Y-119948000D01*
X151400000Y-123718000D02*
X150288000Y-123718000D01*
X150248000Y-123718000D02*
X146518000Y-127448000D01*
X151400000Y-137270000D02*
X150318000Y-137270000D01*
D33*
X159400000Y-137270000D02*
X150218000Y-137270000D01*
D35*
X151400000Y-137270000D02*
X150218000Y-137270000D01*
X150318000Y-137270000D02*
X146518000Y-133470000D01*
X146518000Y-136612000D02*
X146518000Y-133470000D01*
X147176000Y-137270000D02*
X146518000Y-136612000D01*
X150218000Y-137270000D02*
X146518000Y-140970000D01*
X146518000Y-140970000D02*
X146518000Y-136612000D01*
X151400000Y-137270000D02*
X147176000Y-137270000D01*
X150532766Y-150984233D02*
X146502766Y-146954233D01*
X151496766Y-150984233D02*
X147980766Y-150984233D01*
X146502766Y-152462233D02*
X146502766Y-146954233D01*
X147980766Y-150984233D02*
X146502766Y-152462233D01*
X149972766Y-150984233D02*
X146502766Y-154454233D01*
D33*
X159496766Y-150984233D02*
X147980766Y-150984233D01*
D35*
X151496766Y-150984233D02*
X149972766Y-150984233D01*
X146502766Y-154454233D02*
X146502766Y-152462233D01*
X151496766Y-150984233D02*
X150532766Y-150984233D01*
D32*
X136398000Y-52444000D02*
X136398000Y-59944000D01*
X115828969Y-77065985D02*
X115828969Y-57753031D01*
X106919000Y-80772000D02*
X112122954Y-80772000D01*
X112122954Y-80772000D02*
X115828969Y-77065985D01*
X115828969Y-57753031D02*
X121138000Y-52444000D01*
X136438000Y-66033000D02*
X136438000Y-73533000D01*
X118128489Y-69082511D02*
X121178000Y-66033000D01*
X118128489Y-78018477D02*
X118128489Y-69082511D01*
X106919000Y-83312000D02*
X112834966Y-83312000D01*
X112834966Y-83312000D02*
X118128489Y-78018477D01*
X136438000Y-79495000D02*
X136438000Y-86995000D01*
X119903978Y-79495000D02*
X121178000Y-79495000D01*
X113546978Y-85852000D02*
X119903978Y-79495000D01*
X106919000Y-85852000D02*
X113546978Y-85852000D01*
X136438000Y-92957000D02*
X136438000Y-100457000D01*
X116320036Y-92957000D02*
X121178000Y-92957000D01*
X111755036Y-88392000D02*
X116320036Y-92957000D01*
X106919000Y-88392000D02*
X111755036Y-88392000D01*
X136438000Y-106419000D02*
X136438000Y-113919000D01*
X111043024Y-90932000D02*
X116599520Y-96488496D01*
X116599520Y-96488496D02*
X116599520Y-101840520D01*
X116599520Y-101840520D02*
X121178000Y-106419000D01*
X106919000Y-90932000D02*
X111043024Y-90932000D01*
X136438000Y-119948000D02*
X136438000Y-127448000D01*
X110331012Y-93472000D02*
X114300000Y-97440988D01*
X106919000Y-93472000D02*
X110331012Y-93472000D01*
X120456000Y-119948000D02*
X121178000Y-119948000D01*
X114300000Y-113792000D02*
X120456000Y-119948000D01*
X114300000Y-97440988D02*
X114300000Y-113792000D01*
X136438000Y-133470000D02*
X136438000Y-140970000D01*
X117221000Y-119965012D02*
X117221000Y-129413000D01*
X106919000Y-96012000D02*
X109619000Y-96012000D01*
X121178000Y-133370000D02*
X121178000Y-133470000D01*
X109619000Y-96012000D02*
X111968040Y-98361040D01*
X111968040Y-114712052D02*
X117221000Y-119965012D01*
X117221000Y-129413000D02*
X121178000Y-133370000D01*
X111968040Y-98361040D02*
X111968040Y-114712052D01*
X136422766Y-146954233D02*
X136422766Y-154454233D01*
X108101723Y-98552000D02*
X109668520Y-100118797D01*
X109668520Y-115664544D02*
X114857988Y-120854012D01*
X114857988Y-130302000D02*
X117221000Y-132665012D01*
X109668520Y-100118797D02*
X109668520Y-115664544D01*
X106919000Y-98552000D02*
X108101723Y-98552000D01*
X117221000Y-143012467D02*
X121162766Y-146954233D01*
X114857988Y-120854012D02*
X114857988Y-130302000D01*
X117221000Y-132665012D02*
X117221000Y-143012467D01*
X121372000Y-26884000D02*
X120142000Y-25654000D01*
D31*
X129032000Y-34544000D02*
X128778000Y-34290000D01*
X136224000Y-34544000D02*
X129032000Y-34544000D01*
D32*
X128778000Y-26884000D02*
X121372000Y-26884000D01*
X128778000Y-34290000D02*
X128778000Y-26884000D01*
D31*
X146224000Y-34544000D02*
X146224000Y-38862000D01*
X149940000Y-34462000D02*
X146306000Y-34462000D01*
X146306000Y-34462000D02*
X146224000Y-34544000D01*
X149940000Y-34462000D02*
X149940000Y-38862000D01*
X149940000Y-38862000D02*
X146224000Y-38862000D01*
D32*
X71400000Y-160800000D02*
X67800000Y-157200000D01*
D34*
X71400000Y-168400000D02*
X71400000Y-163400000D01*
D32*
X71400000Y-163400000D02*
X71400000Y-160800000D01*
D34*
X76400000Y-168400000D02*
X76400000Y-163400000D01*
D32*
X76400000Y-158200000D02*
X75400000Y-157200000D01*
X76400000Y-163400000D02*
X76400000Y-158200000D01*
D34*
X81400000Y-168400000D02*
X81400000Y-163400000D01*
D32*
X81400000Y-158600000D02*
X82800000Y-157200000D01*
X81400000Y-163400000D02*
X81400000Y-158600000D01*
D34*
X86400000Y-168400000D02*
X86400000Y-163400000D01*
D32*
X86400000Y-161200000D02*
X90400000Y-157200000D01*
X86400000Y-163400000D02*
X86400000Y-161200000D01*
X91400000Y-163400000D02*
X91400000Y-161330000D01*
D34*
X91400000Y-168400000D02*
X91400000Y-163400000D01*
D32*
X91400000Y-161330000D02*
X95530000Y-157200000D01*
X95530000Y-157200000D02*
X97900000Y-157200000D01*
X69776000Y-34524000D02*
X69776000Y-31316000D01*
X74470000Y-26622000D02*
X83028000Y-26622000D01*
X69776000Y-31316000D02*
X74470000Y-26622000D01*
X83028000Y-21622000D02*
X83028000Y-26622000D01*
X93900000Y-34524000D02*
X93900000Y-32494000D01*
X88028000Y-21622000D02*
X88028000Y-26622000D01*
X93900000Y-32494000D02*
X88028000Y-26622000D01*
X104949000Y-31369000D02*
X97775000Y-31369000D01*
X93028000Y-21622000D02*
X93028000Y-26622000D01*
X108124000Y-34544000D02*
X104949000Y-31369000D01*
X97775000Y-31369000D02*
X93028000Y-26622000D01*
D34*
X110312500Y-163224500D02*
X110312500Y-155829000D01*
D31*
X110860000Y-155281500D02*
X110312500Y-155829000D01*
D34*
X110490000Y-163402000D02*
X110312500Y-163224500D01*
X110490000Y-163402000D02*
X110490000Y-168402000D01*
D31*
X110860000Y-152600000D02*
X110860000Y-155281500D01*
X104581980Y-132654019D02*
X104470844Y-132765155D01*
X104581980Y-131688980D02*
X104581980Y-132654019D01*
D36*
X104470844Y-162382844D02*
X104470844Y-132765155D01*
X105490000Y-163402000D02*
X104470844Y-162382844D01*
D34*
X105490000Y-163402000D02*
X105490000Y-168402000D01*
D31*
X104394000Y-131501000D02*
X104581980Y-131688980D01*
D32*
X107235000Y-147287000D02*
X107268000Y-147320000D01*
X107268000Y-147320000D02*
X107268000Y-151548000D01*
X107268000Y-151548000D02*
X108320000Y-152600000D01*
X107235000Y-136271000D02*
X107235000Y-147287000D01*
X99648000Y-125476000D02*
X99648000Y-129295000D01*
X96960000Y-125476000D02*
X99648000Y-125476000D01*
X99648000Y-129295000D02*
X101854000Y-131501000D01*
X78853480Y-99645031D02*
X82486511Y-96012000D01*
X78853480Y-120833613D02*
X78853480Y-99645031D01*
X94319867Y-136300000D02*
X78853480Y-120833613D01*
X94319867Y-136300000D02*
X94348867Y-136271000D01*
X94348867Y-136271000D02*
X97235000Y-136271000D01*
X82486511Y-96012000D02*
X83312000Y-96012000D01*
X81153000Y-100635395D02*
X83236395Y-98552000D01*
X81153000Y-119669000D02*
X81153000Y-100635395D01*
X86960000Y-125476000D02*
X81153000Y-119669000D01*
X83236395Y-98552000D02*
X83312000Y-98552000D01*
X102870000Y-67310000D02*
X102870000Y-64668400D01*
X97028000Y-73152000D02*
X102870000Y-67310000D01*
X90932000Y-73152000D02*
X97028000Y-73152000D01*
X98151000Y-51328000D02*
X98124000Y-51355000D01*
X98124000Y-49082000D02*
X98124000Y-51355000D01*
X98124000Y-64817000D02*
X94869000Y-68072000D01*
X98124000Y-38628000D02*
X98124000Y-34544000D01*
X94869000Y-68072000D02*
X90932000Y-68072000D01*
X100370000Y-51328000D02*
X98151000Y-51328000D01*
X98124000Y-46756000D02*
X98124000Y-42692000D01*
X98124000Y-42692000D02*
X98124000Y-38628000D01*
X98124000Y-51355000D02*
X98124000Y-64817000D01*
X98124000Y-49082000D02*
X98124000Y-46756000D01*
X83312000Y-54142000D02*
X83312000Y-68072000D01*
X83900000Y-53554000D02*
X83312000Y-54142000D01*
X86273000Y-50546000D02*
X84201000Y-50546000D01*
X83900000Y-38608000D02*
X83900000Y-42672000D01*
X83900000Y-46736000D02*
X83900000Y-50847000D01*
X84201000Y-50546000D02*
X83900000Y-50847000D01*
X83900000Y-50847000D02*
X83900000Y-53554000D01*
X83900000Y-34524000D02*
X83900000Y-38608000D01*
X83900000Y-42672000D02*
X83900000Y-46736000D01*
X79776000Y-34524000D02*
X79776000Y-38608000D01*
X79776000Y-47986000D02*
X77216000Y-50546000D01*
X79776000Y-38608000D02*
X79776000Y-42672000D01*
X79776000Y-46736000D02*
X79776000Y-47986000D01*
X82042000Y-70612000D02*
X83312000Y-70612000D01*
X81026000Y-69596000D02*
X82042000Y-70612000D01*
X77216000Y-50546000D02*
X77216000Y-56248000D01*
X77216000Y-56248000D02*
X81026000Y-60058000D01*
X79776000Y-42672000D02*
X79776000Y-46736000D01*
X81026000Y-60058000D02*
X81026000Y-69596000D01*
X83312000Y-106176000D02*
X88336000Y-111200000D01*
X99564000Y-114300000D02*
X96464000Y-111200000D01*
X102500000Y-112400000D02*
X100600000Y-114300000D01*
X96464000Y-111200000D02*
X92400000Y-111200000D01*
X102500000Y-111400000D02*
X102500000Y-112400000D01*
X83312000Y-101092000D02*
X83312000Y-106176000D01*
X100600000Y-114300000D02*
X99564000Y-114300000D01*
X92400000Y-111200000D02*
X88336000Y-111200000D01*
X78923594Y-62108794D02*
X78923594Y-70752500D01*
X72644000Y-80772000D02*
X77724000Y-75692000D01*
X80264000Y-75692000D02*
X83312000Y-75692000D01*
X73406000Y-61468000D02*
X74422000Y-61468000D01*
X75400000Y-145946000D02*
X79200000Y-142146000D01*
X69655400Y-124643581D02*
X69655400Y-95444600D01*
X77724000Y-75692000D02*
X78853500Y-75692000D01*
X78282800Y-61468000D02*
X78923594Y-62108794D01*
X75400000Y-147200000D02*
X75400000Y-145946000D01*
X74422000Y-61468000D02*
X78282800Y-61468000D01*
X78853500Y-75692000D02*
X80264000Y-75692000D01*
X71882000Y-62992000D02*
X73406000Y-61468000D01*
X72644000Y-92456000D02*
X72644000Y-80772000D01*
X79200000Y-142146000D02*
X79200000Y-134188180D01*
X69655400Y-95444600D02*
X72644000Y-92456000D01*
X79200000Y-134188180D02*
X69655400Y-124643581D01*
X86614000Y-138350168D02*
X71954920Y-123691089D01*
X82800000Y-145960000D02*
X86614000Y-142146000D01*
X86614000Y-142146000D02*
X86614000Y-138350168D01*
X71954920Y-123691089D02*
X71954920Y-96547057D01*
X80109977Y-88392000D02*
X83312000Y-88392000D01*
X71954920Y-96547057D02*
X80109977Y-88392000D01*
X82800000Y-147200000D02*
X82800000Y-145960000D01*
X80821989Y-90932000D02*
X83312000Y-90932000D01*
X92851922Y-141336078D02*
X74254440Y-122738597D01*
X90400000Y-147200000D02*
X90400000Y-145980000D01*
X93661843Y-142146000D02*
X92851922Y-141336078D01*
X74254440Y-122738597D02*
X74254440Y-97499549D01*
X74254440Y-97499549D02*
X80821989Y-90932000D01*
X92790000Y-143590000D02*
X94234000Y-142146000D01*
X94234000Y-142146000D02*
X93661843Y-142146000D01*
X92790000Y-143590000D02*
X92851922Y-143528078D01*
X90400000Y-145980000D02*
X92790000Y-143590000D01*
X92851922Y-143528078D02*
X92851922Y-141336078D01*
X76553960Y-121786105D02*
X76553960Y-98452041D01*
X97900000Y-145846000D02*
X101600000Y-142146000D01*
X81534001Y-93472000D02*
X83312000Y-93472000D01*
X97900000Y-147200000D02*
X97900000Y-145846000D01*
X76553960Y-98452041D02*
X81534001Y-93472000D01*
X98203511Y-138749511D02*
X93517366Y-138749511D01*
X93517366Y-138749511D02*
X76553960Y-121786105D01*
X101600000Y-142146000D02*
X98203511Y-138749511D01*
X90932000Y-70612000D02*
X94488000Y-70612000D01*
X93218000Y-75692000D02*
X98298000Y-80772000D01*
X90932000Y-75692000D02*
X93218000Y-75692000D01*
X98298000Y-80772000D02*
X99299000Y-80772000D01*
X92710000Y-78232000D02*
X97790000Y-83312000D01*
X90932000Y-78232000D02*
X92710000Y-78232000D01*
X97790000Y-83312000D02*
X99299000Y-83312000D01*
X90932000Y-80772000D02*
X92189447Y-80772000D01*
X92189447Y-80772000D02*
X97269447Y-85852000D01*
X97269447Y-85852000D02*
X99299000Y-85852000D01*
X90932000Y-88392000D02*
X99299000Y-88392000D01*
X90932000Y-90932000D02*
X99299000Y-90932000D01*
X90932000Y-93472000D02*
X99299000Y-93472000D01*
X90932000Y-96012000D02*
X99299000Y-96012000D01*
X90932000Y-98552000D02*
X99299000Y-98552000D01*
X67355880Y-94442120D02*
X70358000Y-91440000D01*
X71628000Y-142146000D02*
X71628000Y-129868193D01*
X71882000Y-73152000D02*
X83312000Y-73152000D01*
X71628000Y-129868193D02*
X67355880Y-125596073D01*
X67800000Y-145974000D02*
X71628000Y-142146000D01*
X67800000Y-147200000D02*
X67800000Y-145974000D01*
X67355880Y-125596073D02*
X67355880Y-94442120D01*
X70358000Y-91440000D02*
X70358000Y-80010000D01*
X71882000Y-78486000D02*
X71882000Y-73152000D01*
X70358000Y-80010000D02*
X71882000Y-78486000D01*
X84443370Y-78232000D02*
X83312000Y-78232000D01*
X85720000Y-76955370D02*
X84443370Y-78232000D01*
X85720000Y-64230000D02*
X85720000Y-76955370D01*
X75189078Y-65532000D02*
X76454000Y-64267078D01*
X71882000Y-65532000D02*
X75189078Y-65532000D01*
X94526000Y-101007000D02*
X91017000Y-101007000D01*
X91017000Y-101007000D02*
X90932000Y-101092000D01*
X94300000Y-101233000D02*
X94526000Y-101007000D01*
X71882000Y-68072000D02*
X76454000Y-68072000D01*
X94300000Y-105200000D02*
X94300000Y-101233000D01*
X94256000Y-105156000D02*
X94300000Y-105200000D01*
X90932000Y-105156000D02*
X94256000Y-105156000D01*
X93312000Y-59436000D02*
X90678000Y-59436000D01*
X94488000Y-60612000D02*
X93312000Y-59436000D01*
M02*
