G04 #@! TF.GenerationSoftware,KiCad,Pcbnew,(6.0.4)*
G04 #@! TF.CreationDate,2022-04-10T10:46:35+02:00*
G04 #@! TF.ProjectId,pcb-ihc_kicad,7063622d-6968-4635-9f6b-696361642e6b,rev?*
G04 #@! TF.SameCoordinates,Original*
G04 #@! TF.FileFunction,Other,User*
%FSLAX46Y46*%
G04 Gerber Fmt 4.6, Leading zero omitted, Abs format (unit mm)*
G04 Created by KiCad (PCBNEW (6.0.4)) date 2022-04-10 10:46:35*
%MOMM*%
%LPD*%
G01*
G04 APERTURE LIST*
%ADD10C,0.300000*%
G04 APERTURE END LIST*
D10*
X114808000Y-42926000D02*
X131064000Y-42926000D01*
X131064000Y-42926000D02*
X131064000Y-49022000D01*
X131064000Y-49022000D02*
X114808000Y-49022000D01*
X114808000Y-49022000D02*
X114808000Y-42926000D01*
X70886928Y-20284428D02*
X72386928Y-20284428D01*
X70886928Y-19570142D02*
X72386928Y-19570142D01*
X70886928Y-18713000D01*
X72386928Y-18713000D01*
X69471928Y-26784428D02*
X67971928Y-26784428D01*
X69400500Y-26784428D02*
X69471928Y-26641571D01*
X69471928Y-26355857D01*
X69400500Y-26213000D01*
X69329071Y-26141571D01*
X69186214Y-26070142D01*
X68757642Y-26070142D01*
X68614785Y-26141571D01*
X68543357Y-26213000D01*
X68471928Y-26355857D01*
X68471928Y-26641571D01*
X68543357Y-26784428D01*
X69471928Y-24784428D02*
X68471928Y-24784428D01*
X69471928Y-25427285D02*
X68686214Y-25427285D01*
X68543357Y-25355857D01*
X68471928Y-25213000D01*
X68471928Y-24998714D01*
X68543357Y-24855857D01*
X68614785Y-24784428D01*
X68471928Y-23855857D02*
X68543357Y-23998714D01*
X68686214Y-24070142D01*
X69971928Y-24070142D01*
X68471928Y-23070142D02*
X68543357Y-23213000D01*
X68686214Y-23284428D01*
X69971928Y-23284428D01*
X68471928Y-21855857D02*
X69971928Y-21855857D01*
X68543357Y-21855857D02*
X68471928Y-21998714D01*
X68471928Y-22284428D01*
X68543357Y-22427285D01*
X68614785Y-22498714D01*
X68757642Y-22570142D01*
X69186214Y-22570142D01*
X69329071Y-22498714D01*
X69400500Y-22427285D01*
X69471928Y-22284428D01*
X69471928Y-21998714D01*
X69400500Y-21855857D01*
X68471928Y-20927285D02*
X68543357Y-21070142D01*
X68614785Y-21141571D01*
X68757642Y-21213000D01*
X69186214Y-21213000D01*
X69329071Y-21141571D01*
X69400500Y-21070142D01*
X69471928Y-20927285D01*
X69471928Y-20713000D01*
X69400500Y-20570142D01*
X69329071Y-20498714D01*
X69186214Y-20427285D01*
X68757642Y-20427285D01*
X68614785Y-20498714D01*
X68543357Y-20570142D01*
X68471928Y-20713000D01*
X68471928Y-20927285D01*
X69471928Y-19927285D02*
X68471928Y-19641571D01*
X69186214Y-19355857D01*
X68471928Y-19070142D01*
X69471928Y-18784428D01*
X69471928Y-18213000D02*
X68471928Y-18213000D01*
X69329071Y-18213000D02*
X69400500Y-18141571D01*
X69471928Y-17998714D01*
X69471928Y-17784428D01*
X69400500Y-17641571D01*
X69257642Y-17570142D01*
X68471928Y-17570142D01*
X101717542Y-167347714D02*
X102917542Y-167347714D01*
X102917542Y-166890571D01*
X102860400Y-166776285D01*
X102803257Y-166719142D01*
X102688971Y-166662000D01*
X102517542Y-166662000D01*
X102403257Y-166719142D01*
X102346114Y-166776285D01*
X102288971Y-166890571D01*
X102288971Y-167347714D01*
X101831828Y-165462000D02*
X101774685Y-165519142D01*
X101717542Y-165690571D01*
X101717542Y-165804857D01*
X101774685Y-165976285D01*
X101888971Y-166090571D01*
X102003257Y-166147714D01*
X102231828Y-166204857D01*
X102403257Y-166204857D01*
X102631828Y-166147714D01*
X102746114Y-166090571D01*
X102860400Y-165976285D01*
X102917542Y-165804857D01*
X102917542Y-165690571D01*
X102860400Y-165519142D01*
X102803257Y-165462000D01*
X102517542Y-164433428D02*
X101717542Y-164433428D01*
X102974685Y-164719142D02*
X102117542Y-165004857D01*
X102117542Y-164262000D01*
X94178400Y-172636571D02*
X94178400Y-171136571D01*
X93606971Y-171136571D01*
X93464114Y-171208000D01*
X93392685Y-171279428D01*
X93321257Y-171422285D01*
X93321257Y-171636571D01*
X93392685Y-171779428D01*
X93464114Y-171850857D01*
X93606971Y-171922285D01*
X94178400Y-171922285D01*
X91821257Y-172493714D02*
X91892685Y-172565142D01*
X92106971Y-172636571D01*
X92249828Y-172636571D01*
X92464114Y-172565142D01*
X92606971Y-172422285D01*
X92678400Y-172279428D01*
X92749828Y-171993714D01*
X92749828Y-171779428D01*
X92678400Y-171493714D01*
X92606971Y-171350857D01*
X92464114Y-171208000D01*
X92249828Y-171136571D01*
X92106971Y-171136571D01*
X91892685Y-171208000D01*
X91821257Y-171279428D01*
X91249828Y-171279428D02*
X91178400Y-171208000D01*
X91035542Y-171136571D01*
X90678400Y-171136571D01*
X90535542Y-171208000D01*
X90464114Y-171279428D01*
X90392685Y-171422285D01*
X90392685Y-171565142D01*
X90464114Y-171779428D01*
X91321257Y-172636571D01*
X90392685Y-172636571D01*
X88606971Y-172636571D02*
X88606971Y-171136571D01*
X88035542Y-171136571D01*
X87892685Y-171208000D01*
X87821257Y-171279428D01*
X87749828Y-171422285D01*
X87749828Y-171636571D01*
X87821257Y-171779428D01*
X87892685Y-171850857D01*
X88035542Y-171922285D01*
X88606971Y-171922285D01*
X86249828Y-172493714D02*
X86321257Y-172565142D01*
X86535542Y-172636571D01*
X86678400Y-172636571D01*
X86892685Y-172565142D01*
X87035542Y-172422285D01*
X87106971Y-172279428D01*
X87178400Y-171993714D01*
X87178400Y-171779428D01*
X87106971Y-171493714D01*
X87035542Y-171350857D01*
X86892685Y-171208000D01*
X86678400Y-171136571D01*
X86535542Y-171136571D01*
X86321257Y-171208000D01*
X86249828Y-171279428D01*
X84821257Y-172636571D02*
X85678400Y-172636571D01*
X85249828Y-172636571D02*
X85249828Y-171136571D01*
X85392685Y-171350857D01*
X85535542Y-171493714D01*
X85678400Y-171565142D01*
X83035542Y-172636571D02*
X83035542Y-171136571D01*
X82464114Y-171136571D01*
X82321257Y-171208000D01*
X82249828Y-171279428D01*
X82178400Y-171422285D01*
X82178400Y-171636571D01*
X82249828Y-171779428D01*
X82321257Y-171850857D01*
X82464114Y-171922285D01*
X83035542Y-171922285D01*
X80678400Y-172493714D02*
X80749828Y-172565142D01*
X80964114Y-172636571D01*
X81106971Y-172636571D01*
X81321257Y-172565142D01*
X81464114Y-172422285D01*
X81535542Y-172279428D01*
X81606971Y-171993714D01*
X81606971Y-171779428D01*
X81535542Y-171493714D01*
X81464114Y-171350857D01*
X81321257Y-171208000D01*
X81106971Y-171136571D01*
X80964114Y-171136571D01*
X80749828Y-171208000D01*
X80678400Y-171279428D01*
X79749828Y-171136571D02*
X79606971Y-171136571D01*
X79464114Y-171208000D01*
X79392685Y-171279428D01*
X79321257Y-171422285D01*
X79249828Y-171708000D01*
X79249828Y-172065142D01*
X79321257Y-172350857D01*
X79392685Y-172493714D01*
X79464114Y-172565142D01*
X79606971Y-172636571D01*
X79749828Y-172636571D01*
X79892685Y-172565142D01*
X79964114Y-172493714D01*
X80035542Y-172350857D01*
X80106971Y-172065142D01*
X80106971Y-171708000D01*
X80035542Y-171422285D01*
X79964114Y-171279428D01*
X79892685Y-171208000D01*
X79749828Y-171136571D01*
X77464114Y-172636571D02*
X77464114Y-171136571D01*
X76892685Y-171136571D01*
X76749828Y-171208000D01*
X76678400Y-171279428D01*
X76606971Y-171422285D01*
X76606971Y-171636571D01*
X76678400Y-171779428D01*
X76749828Y-171850857D01*
X76892685Y-171922285D01*
X77464114Y-171922285D01*
X75464114Y-171850857D02*
X75249828Y-171922285D01*
X75178400Y-171993714D01*
X75106971Y-172136571D01*
X75106971Y-172350857D01*
X75178400Y-172493714D01*
X75249828Y-172565142D01*
X75392685Y-172636571D01*
X75964114Y-172636571D01*
X75964114Y-171136571D01*
X75464114Y-171136571D01*
X75321257Y-171208000D01*
X75249828Y-171279428D01*
X75178400Y-171422285D01*
X75178400Y-171565142D01*
X75249828Y-171708000D01*
X75321257Y-171779428D01*
X75464114Y-171850857D01*
X75964114Y-171850857D01*
X73821257Y-171636571D02*
X73821257Y-172636571D01*
X74178400Y-171065142D02*
X74535542Y-172136571D01*
X73606971Y-172136571D01*
X71892685Y-172636571D02*
X71892685Y-171136571D01*
X71321257Y-171136571D01*
X71178400Y-171208000D01*
X71106971Y-171279428D01*
X71035542Y-171422285D01*
X71035542Y-171636571D01*
X71106971Y-171779428D01*
X71178400Y-171850857D01*
X71321257Y-171922285D01*
X71892685Y-171922285D01*
X69892685Y-171850857D02*
X69678400Y-171922285D01*
X69606971Y-171993714D01*
X69535542Y-172136571D01*
X69535542Y-172350857D01*
X69606971Y-172493714D01*
X69678400Y-172565142D01*
X69821257Y-172636571D01*
X70392685Y-172636571D01*
X70392685Y-171136571D01*
X69892685Y-171136571D01*
X69749828Y-171208000D01*
X69678400Y-171279428D01*
X69606971Y-171422285D01*
X69606971Y-171565142D01*
X69678400Y-171708000D01*
X69749828Y-171779428D01*
X69892685Y-171850857D01*
X70392685Y-171850857D01*
X69035542Y-171136571D02*
X68106971Y-171136571D01*
X68606971Y-171708000D01*
X68392685Y-171708000D01*
X68249828Y-171779428D01*
X68178400Y-171850857D01*
X68106971Y-171993714D01*
X68106971Y-172350857D01*
X68178400Y-172493714D01*
X68249828Y-172565142D01*
X68392685Y-172636571D01*
X68821257Y-172636571D01*
X68964114Y-172565142D01*
X69035542Y-172493714D01*
X162872857Y-61638571D02*
X162872857Y-60138571D01*
X162015714Y-61638571D02*
X162658571Y-60781428D01*
X162015714Y-60138571D02*
X162872857Y-60995714D01*
X160587142Y-61638571D02*
X161444285Y-61638571D01*
X161015714Y-61638571D02*
X161015714Y-60138571D01*
X161158571Y-60352857D01*
X161301428Y-60495714D01*
X161444285Y-60567142D01*
X158801428Y-61067142D02*
X157658571Y-61067142D01*
X155801428Y-61638571D02*
X155801428Y-60138571D01*
X155230000Y-60138571D01*
X155087142Y-60210000D01*
X155015714Y-60281428D01*
X154944285Y-60424285D01*
X154944285Y-60638571D01*
X155015714Y-60781428D01*
X155087142Y-60852857D01*
X155230000Y-60924285D01*
X155801428Y-60924285D01*
X154301428Y-61638571D02*
X154301428Y-60138571D01*
X153944285Y-60138571D01*
X153730000Y-60210000D01*
X153587142Y-60352857D01*
X153515714Y-60495714D01*
X153444285Y-60781428D01*
X153444285Y-60995714D01*
X153515714Y-61281428D01*
X153587142Y-61424285D01*
X153730000Y-61567142D01*
X153944285Y-61638571D01*
X154301428Y-61638571D01*
X152087142Y-60138571D02*
X152801428Y-60138571D01*
X152872857Y-60852857D01*
X152801428Y-60781428D01*
X152658571Y-60710000D01*
X152301428Y-60710000D01*
X152158571Y-60781428D01*
X152087142Y-60852857D01*
X152015714Y-60995714D01*
X152015714Y-61352857D01*
X152087142Y-61495714D01*
X152158571Y-61567142D01*
X152301428Y-61638571D01*
X152658571Y-61638571D01*
X152801428Y-61567142D01*
X152872857Y-61495714D01*
X108029142Y-62146571D02*
X108029142Y-60646571D01*
X107457714Y-60646571D01*
X107314857Y-60718000D01*
X107243428Y-60789428D01*
X107172000Y-60932285D01*
X107172000Y-61146571D01*
X107243428Y-61289428D01*
X107314857Y-61360857D01*
X107457714Y-61432285D01*
X108029142Y-61432285D01*
X106529142Y-62146571D02*
X106529142Y-60646571D01*
X106172000Y-60646571D01*
X105957714Y-60718000D01*
X105814857Y-60860857D01*
X105743428Y-61003714D01*
X105672000Y-61289428D01*
X105672000Y-61503714D01*
X105743428Y-61789428D01*
X105814857Y-61932285D01*
X105957714Y-62075142D01*
X106172000Y-62146571D01*
X106529142Y-62146571D01*
X104386285Y-60646571D02*
X104672000Y-60646571D01*
X104814857Y-60718000D01*
X104886285Y-60789428D01*
X105029142Y-61003714D01*
X105100571Y-61289428D01*
X105100571Y-61860857D01*
X105029142Y-62003714D01*
X104957714Y-62075142D01*
X104814857Y-62146571D01*
X104529142Y-62146571D01*
X104386285Y-62075142D01*
X104314857Y-62003714D01*
X104243428Y-61860857D01*
X104243428Y-61503714D01*
X104314857Y-61360857D01*
X104386285Y-61289428D01*
X104529142Y-61218000D01*
X104814857Y-61218000D01*
X104957714Y-61289428D01*
X105029142Y-61360857D01*
X105100571Y-61503714D01*
X162872857Y-156888571D02*
X162872857Y-155388571D01*
X162015714Y-156888571D02*
X162658571Y-156031428D01*
X162015714Y-155388571D02*
X162872857Y-156245714D01*
X161158571Y-156031428D02*
X161301428Y-155960000D01*
X161372857Y-155888571D01*
X161444285Y-155745714D01*
X161444285Y-155674285D01*
X161372857Y-155531428D01*
X161301428Y-155460000D01*
X161158571Y-155388571D01*
X160872857Y-155388571D01*
X160730000Y-155460000D01*
X160658571Y-155531428D01*
X160587142Y-155674285D01*
X160587142Y-155745714D01*
X160658571Y-155888571D01*
X160730000Y-155960000D01*
X160872857Y-156031428D01*
X161158571Y-156031428D01*
X161301428Y-156102857D01*
X161372857Y-156174285D01*
X161444285Y-156317142D01*
X161444285Y-156602857D01*
X161372857Y-156745714D01*
X161301428Y-156817142D01*
X161158571Y-156888571D01*
X160872857Y-156888571D01*
X160730000Y-156817142D01*
X160658571Y-156745714D01*
X160587142Y-156602857D01*
X160587142Y-156317142D01*
X160658571Y-156174285D01*
X160730000Y-156102857D01*
X160872857Y-156031428D01*
X158801428Y-156317142D02*
X157658571Y-156317142D01*
X155801428Y-156888571D02*
X155801428Y-155388571D01*
X155230000Y-155388571D01*
X155087142Y-155460000D01*
X155015714Y-155531428D01*
X154944285Y-155674285D01*
X154944285Y-155888571D01*
X155015714Y-156031428D01*
X155087142Y-156102857D01*
X155230000Y-156174285D01*
X155801428Y-156174285D01*
X154301428Y-156888571D02*
X154301428Y-155388571D01*
X153944285Y-155388571D01*
X153730000Y-155460000D01*
X153587142Y-155602857D01*
X153515714Y-155745714D01*
X153444285Y-156031428D01*
X153444285Y-156245714D01*
X153515714Y-156531428D01*
X153587142Y-156674285D01*
X153730000Y-156817142D01*
X153944285Y-156888571D01*
X154301428Y-156888571D01*
X152515714Y-155388571D02*
X152372857Y-155388571D01*
X152230000Y-155460000D01*
X152158571Y-155531428D01*
X152087142Y-155674285D01*
X152015714Y-155960000D01*
X152015714Y-156317142D01*
X152087142Y-156602857D01*
X152158571Y-156745714D01*
X152230000Y-156817142D01*
X152372857Y-156888571D01*
X152515714Y-156888571D01*
X152658571Y-156817142D01*
X152730000Y-156745714D01*
X152801428Y-156602857D01*
X152872857Y-156317142D01*
X152872857Y-155960000D01*
X152801428Y-155674285D01*
X152730000Y-155531428D01*
X152658571Y-155460000D01*
X152515714Y-155388571D01*
X93805142Y-64432571D02*
X93805142Y-62932571D01*
X93233714Y-62932571D01*
X93090857Y-63004000D01*
X93019428Y-63075428D01*
X92948000Y-63218285D01*
X92948000Y-63432571D01*
X93019428Y-63575428D01*
X93090857Y-63646857D01*
X93233714Y-63718285D01*
X93805142Y-63718285D01*
X92305142Y-64432571D02*
X92305142Y-62932571D01*
X91948000Y-62932571D01*
X91733714Y-63004000D01*
X91590857Y-63146857D01*
X91519428Y-63289714D01*
X91448000Y-63575428D01*
X91448000Y-63789714D01*
X91519428Y-64075428D01*
X91590857Y-64218285D01*
X91733714Y-64361142D01*
X91948000Y-64432571D01*
X92305142Y-64432571D01*
X90948000Y-62932571D02*
X89948000Y-62932571D01*
X90590857Y-64432571D01*
X162872857Y-88816571D02*
X162872857Y-87316571D01*
X162015714Y-88816571D02*
X162658571Y-87959428D01*
X162015714Y-87316571D02*
X162872857Y-88173714D01*
X161515714Y-87316571D02*
X160587142Y-87316571D01*
X161087142Y-87888000D01*
X160872857Y-87888000D01*
X160730000Y-87959428D01*
X160658571Y-88030857D01*
X160587142Y-88173714D01*
X160587142Y-88530857D01*
X160658571Y-88673714D01*
X160730000Y-88745142D01*
X160872857Y-88816571D01*
X161301428Y-88816571D01*
X161444285Y-88745142D01*
X161515714Y-88673714D01*
X158801428Y-88245142D02*
X157658571Y-88245142D01*
X155801428Y-88816571D02*
X155801428Y-87316571D01*
X155230000Y-87316571D01*
X155087142Y-87388000D01*
X155015714Y-87459428D01*
X154944285Y-87602285D01*
X154944285Y-87816571D01*
X155015714Y-87959428D01*
X155087142Y-88030857D01*
X155230000Y-88102285D01*
X155801428Y-88102285D01*
X153801428Y-88030857D02*
X153587142Y-88102285D01*
X153515714Y-88173714D01*
X153444285Y-88316571D01*
X153444285Y-88530857D01*
X153515714Y-88673714D01*
X153587142Y-88745142D01*
X153730000Y-88816571D01*
X154301428Y-88816571D01*
X154301428Y-87316571D01*
X153801428Y-87316571D01*
X153658571Y-87388000D01*
X153587142Y-87459428D01*
X153515714Y-87602285D01*
X153515714Y-87745142D01*
X153587142Y-87888000D01*
X153658571Y-87959428D01*
X153801428Y-88030857D01*
X154301428Y-88030857D01*
X152158571Y-87316571D02*
X152444285Y-87316571D01*
X152587142Y-87388000D01*
X152658571Y-87459428D01*
X152801428Y-87673714D01*
X152872857Y-87959428D01*
X152872857Y-88530857D01*
X152801428Y-88673714D01*
X152730000Y-88745142D01*
X152587142Y-88816571D01*
X152301428Y-88816571D01*
X152158571Y-88745142D01*
X152087142Y-88673714D01*
X152015714Y-88530857D01*
X152015714Y-88173714D01*
X152087142Y-88030857D01*
X152158571Y-87959428D01*
X152301428Y-87888000D01*
X152587142Y-87888000D01*
X152730000Y-87959428D01*
X152801428Y-88030857D01*
X152872857Y-88173714D01*
X81027200Y-17948342D02*
X81027200Y-19148342D01*
X81484342Y-19148342D01*
X81598628Y-19091200D01*
X81655771Y-19034057D01*
X81712914Y-18919771D01*
X81712914Y-18748342D01*
X81655771Y-18634057D01*
X81598628Y-18576914D01*
X81484342Y-18519771D01*
X81027200Y-18519771D01*
X82627200Y-18576914D02*
X82798628Y-18519771D01*
X82855771Y-18462628D01*
X82912914Y-18348342D01*
X82912914Y-18176914D01*
X82855771Y-18062628D01*
X82798628Y-18005485D01*
X82684342Y-17948342D01*
X82227200Y-17948342D01*
X82227200Y-19148342D01*
X82627200Y-19148342D01*
X82741485Y-19091200D01*
X82798628Y-19034057D01*
X82855771Y-18919771D01*
X82855771Y-18805485D01*
X82798628Y-18691200D01*
X82741485Y-18634057D01*
X82627200Y-18576914D01*
X82227200Y-18576914D01*
X83655771Y-19148342D02*
X83770057Y-19148342D01*
X83884342Y-19091200D01*
X83941485Y-19034057D01*
X83998628Y-18919771D01*
X84055771Y-18691200D01*
X84055771Y-18405485D01*
X83998628Y-18176914D01*
X83941485Y-18062628D01*
X83884342Y-18005485D01*
X83770057Y-17948342D01*
X83655771Y-17948342D01*
X83541485Y-18005485D01*
X83484342Y-18062628D01*
X83427200Y-18176914D01*
X83370057Y-18405485D01*
X83370057Y-18691200D01*
X83427200Y-18919771D01*
X83484342Y-19034057D01*
X83541485Y-19091200D01*
X83655771Y-19148342D01*
X86398628Y-17948342D02*
X86398628Y-19148342D01*
X86855771Y-19148342D01*
X86970057Y-19091200D01*
X87027200Y-19034057D01*
X87084342Y-18919771D01*
X87084342Y-18748342D01*
X87027200Y-18634057D01*
X86970057Y-18576914D01*
X86855771Y-18519771D01*
X86398628Y-18519771D01*
X87998628Y-18576914D02*
X88170057Y-18519771D01*
X88227200Y-18462628D01*
X88284342Y-18348342D01*
X88284342Y-18176914D01*
X88227200Y-18062628D01*
X88170057Y-18005485D01*
X88055771Y-17948342D01*
X87598628Y-17948342D01*
X87598628Y-19148342D01*
X87998628Y-19148342D01*
X88112914Y-19091200D01*
X88170057Y-19034057D01*
X88227200Y-18919771D01*
X88227200Y-18805485D01*
X88170057Y-18691200D01*
X88112914Y-18634057D01*
X87998628Y-18576914D01*
X87598628Y-18576914D01*
X89427200Y-17948342D02*
X88741485Y-17948342D01*
X89084342Y-17948342D02*
X89084342Y-19148342D01*
X88970057Y-18976914D01*
X88855771Y-18862628D01*
X88741485Y-18805485D01*
X91770057Y-17948342D02*
X91770057Y-19148342D01*
X92227200Y-19148342D01*
X92341485Y-19091200D01*
X92398628Y-19034057D01*
X92455771Y-18919771D01*
X92455771Y-18748342D01*
X92398628Y-18634057D01*
X92341485Y-18576914D01*
X92227200Y-18519771D01*
X91770057Y-18519771D01*
X93370057Y-18576914D02*
X93541485Y-18519771D01*
X93598628Y-18462628D01*
X93655771Y-18348342D01*
X93655771Y-18176914D01*
X93598628Y-18062628D01*
X93541485Y-18005485D01*
X93427200Y-17948342D01*
X92970057Y-17948342D01*
X92970057Y-19148342D01*
X93370057Y-19148342D01*
X93484342Y-19091200D01*
X93541485Y-19034057D01*
X93598628Y-18919771D01*
X93598628Y-18805485D01*
X93541485Y-18691200D01*
X93484342Y-18634057D01*
X93370057Y-18576914D01*
X92970057Y-18576914D01*
X94112914Y-19034057D02*
X94170057Y-19091200D01*
X94284342Y-19148342D01*
X94570057Y-19148342D01*
X94684342Y-19091200D01*
X94741485Y-19034057D01*
X94798628Y-18919771D01*
X94798628Y-18805485D01*
X94741485Y-18634057D01*
X94055771Y-17948342D01*
X94798628Y-17948342D01*
X97770057Y-19091200D02*
X97655771Y-19148342D01*
X97484342Y-19148342D01*
X97312914Y-19091200D01*
X97198628Y-18976914D01*
X97141485Y-18862628D01*
X97084342Y-18634057D01*
X97084342Y-18462628D01*
X97141485Y-18234057D01*
X97198628Y-18119771D01*
X97312914Y-18005485D01*
X97484342Y-17948342D01*
X97598628Y-17948342D01*
X97770057Y-18005485D01*
X97827200Y-18062628D01*
X97827200Y-18462628D01*
X97598628Y-18462628D01*
X98341485Y-17948342D02*
X98341485Y-19148342D01*
X99027200Y-17948342D01*
X99027200Y-19148342D01*
X99598628Y-17948342D02*
X99598628Y-19148342D01*
X99884342Y-19148342D01*
X100055771Y-19091200D01*
X100170057Y-18976914D01*
X100227200Y-18862628D01*
X100284342Y-18634057D01*
X100284342Y-18462628D01*
X100227200Y-18234057D01*
X100170057Y-18119771D01*
X100055771Y-18005485D01*
X99884342Y-17948342D01*
X99598628Y-17948342D01*
X66631428Y-169957142D02*
X68131428Y-169957142D01*
X66631428Y-169242857D02*
X68131428Y-169242857D01*
X66631428Y-168385714D01*
X68131428Y-168385714D01*
X67631428Y-166528571D02*
X66131428Y-166528571D01*
X67560000Y-166528571D02*
X67631428Y-166385714D01*
X67631428Y-166100000D01*
X67560000Y-165957142D01*
X67488571Y-165885714D01*
X67345714Y-165814285D01*
X66917142Y-165814285D01*
X66774285Y-165885714D01*
X66702857Y-165957142D01*
X66631428Y-166100000D01*
X66631428Y-166385714D01*
X66702857Y-166528571D01*
X67631428Y-164528571D02*
X66631428Y-164528571D01*
X67631428Y-165171428D02*
X66845714Y-165171428D01*
X66702857Y-165100000D01*
X66631428Y-164957142D01*
X66631428Y-164742857D01*
X66702857Y-164600000D01*
X66774285Y-164528571D01*
X66631428Y-163600000D02*
X66702857Y-163742857D01*
X66845714Y-163814285D01*
X68131428Y-163814285D01*
X66631428Y-162814285D02*
X66702857Y-162957142D01*
X66845714Y-163028571D01*
X68131428Y-163028571D01*
X67631428Y-161600000D02*
X66631428Y-161600000D01*
X67631428Y-162242857D02*
X66845714Y-162242857D01*
X66702857Y-162171428D01*
X66631428Y-162028571D01*
X66631428Y-161814285D01*
X66702857Y-161671428D01*
X66774285Y-161600000D01*
X67631428Y-160885714D02*
X66131428Y-160885714D01*
X67560000Y-160885714D02*
X67631428Y-160742857D01*
X67631428Y-160457142D01*
X67560000Y-160314285D01*
X67488571Y-160242857D01*
X67345714Y-160171428D01*
X66917142Y-160171428D01*
X66774285Y-160242857D01*
X66702857Y-160314285D01*
X66631428Y-160457142D01*
X66631428Y-160742857D01*
X66702857Y-160885714D01*
X129828857Y-44445071D02*
X129828857Y-45945071D01*
X129828857Y-44516500D02*
X129686000Y-44445071D01*
X129400285Y-44445071D01*
X129257428Y-44516500D01*
X129186000Y-44587928D01*
X129114571Y-44730785D01*
X129114571Y-45159357D01*
X129186000Y-45302214D01*
X129257428Y-45373642D01*
X129400285Y-45445071D01*
X129686000Y-45445071D01*
X129828857Y-45373642D01*
X127828857Y-45373642D02*
X127971714Y-45445071D01*
X128257428Y-45445071D01*
X128400285Y-45373642D01*
X128471714Y-45302214D01*
X128543142Y-45159357D01*
X128543142Y-44730785D01*
X128471714Y-44587928D01*
X128400285Y-44516500D01*
X128257428Y-44445071D01*
X127971714Y-44445071D01*
X127828857Y-44516500D01*
X127186000Y-45445071D02*
X127186000Y-43945071D01*
X127186000Y-44516500D02*
X127043142Y-44445071D01*
X126757428Y-44445071D01*
X126614571Y-44516500D01*
X126543142Y-44587928D01*
X126471714Y-44730785D01*
X126471714Y-45159357D01*
X126543142Y-45302214D01*
X126614571Y-45373642D01*
X126757428Y-45445071D01*
X127043142Y-45445071D01*
X127186000Y-45373642D01*
X124686000Y-45445071D02*
X124686000Y-44445071D01*
X124686000Y-43945071D02*
X124757428Y-44016500D01*
X124686000Y-44087928D01*
X124614571Y-44016500D01*
X124686000Y-43945071D01*
X124686000Y-44087928D01*
X123971714Y-45445071D02*
X123971714Y-43945071D01*
X123328857Y-45445071D02*
X123328857Y-44659357D01*
X123400285Y-44516500D01*
X123543142Y-44445071D01*
X123757428Y-44445071D01*
X123900285Y-44516500D01*
X123971714Y-44587928D01*
X121971714Y-45373642D02*
X122114571Y-45445071D01*
X122400285Y-45445071D01*
X122543142Y-45373642D01*
X122614571Y-45302214D01*
X122686000Y-45159357D01*
X122686000Y-44730785D01*
X122614571Y-44587928D01*
X122543142Y-44516500D01*
X122400285Y-44445071D01*
X122114571Y-44445071D01*
X121971714Y-44516500D01*
X120400285Y-43945071D02*
X119900285Y-45445071D01*
X119400285Y-43945071D01*
X118114571Y-45445071D02*
X118971714Y-45445071D01*
X118543142Y-45445071D02*
X118543142Y-43945071D01*
X118686000Y-44159357D01*
X118828857Y-44302214D01*
X118971714Y-44373642D01*
X117471714Y-45302214D02*
X117400285Y-45373642D01*
X117471714Y-45445071D01*
X117543142Y-45373642D01*
X117471714Y-45302214D01*
X117471714Y-45445071D01*
X115971714Y-45445071D02*
X116828857Y-45445071D01*
X116400285Y-45445071D02*
X116400285Y-43945071D01*
X116543142Y-44159357D01*
X116686000Y-44302214D01*
X116828857Y-44373642D01*
X128614571Y-47431500D02*
X127900285Y-47431500D01*
X128757428Y-47860071D02*
X128257428Y-46360071D01*
X127757428Y-47860071D01*
X127257428Y-46860071D02*
X127257428Y-48360071D01*
X127257428Y-46931500D02*
X127114571Y-46860071D01*
X126828857Y-46860071D01*
X126686000Y-46931500D01*
X126614571Y-47002928D01*
X126543142Y-47145785D01*
X126543142Y-47574357D01*
X126614571Y-47717214D01*
X126686000Y-47788642D01*
X126828857Y-47860071D01*
X127114571Y-47860071D01*
X127257428Y-47788642D01*
X125900285Y-47860071D02*
X125900285Y-46860071D01*
X125900285Y-47145785D02*
X125828857Y-47002928D01*
X125757428Y-46931500D01*
X125614571Y-46860071D01*
X125471714Y-46860071D01*
X124971714Y-47860071D02*
X124971714Y-46860071D01*
X124971714Y-46360071D02*
X125043142Y-46431500D01*
X124971714Y-46502928D01*
X124900285Y-46431500D01*
X124971714Y-46360071D01*
X124971714Y-46502928D01*
X124043142Y-47860071D02*
X124186000Y-47788642D01*
X124257428Y-47645785D01*
X124257428Y-46360071D01*
X122400285Y-46502928D02*
X122328857Y-46431500D01*
X122186000Y-46360071D01*
X121828857Y-46360071D01*
X121686000Y-46431500D01*
X121614571Y-46502928D01*
X121543142Y-46645785D01*
X121543142Y-46788642D01*
X121614571Y-47002928D01*
X122471714Y-47860071D01*
X121543142Y-47860071D01*
X120614571Y-46360071D02*
X120471714Y-46360071D01*
X120328857Y-46431500D01*
X120257428Y-46502928D01*
X120186000Y-46645785D01*
X120114571Y-46931500D01*
X120114571Y-47288642D01*
X120186000Y-47574357D01*
X120257428Y-47717214D01*
X120328857Y-47788642D01*
X120471714Y-47860071D01*
X120614571Y-47860071D01*
X120757428Y-47788642D01*
X120828857Y-47717214D01*
X120900285Y-47574357D01*
X120971714Y-47288642D01*
X120971714Y-46931500D01*
X120900285Y-46645785D01*
X120828857Y-46502928D01*
X120757428Y-46431500D01*
X120614571Y-46360071D01*
X119543142Y-46502928D02*
X119471714Y-46431500D01*
X119328857Y-46360071D01*
X118971714Y-46360071D01*
X118828857Y-46431500D01*
X118757428Y-46502928D01*
X118686000Y-46645785D01*
X118686000Y-46788642D01*
X118757428Y-47002928D01*
X119614571Y-47860071D01*
X118686000Y-47860071D01*
X118114571Y-46502928D02*
X118043142Y-46431500D01*
X117900285Y-46360071D01*
X117543142Y-46360071D01*
X117400285Y-46431500D01*
X117328857Y-46502928D01*
X117257428Y-46645785D01*
X117257428Y-46788642D01*
X117328857Y-47002928D01*
X118186000Y-47860071D01*
X117257428Y-47860071D01*
X162872857Y-115740571D02*
X162872857Y-114240571D01*
X162015714Y-115740571D02*
X162658571Y-114883428D01*
X162015714Y-114240571D02*
X162872857Y-115097714D01*
X160658571Y-114240571D02*
X161372857Y-114240571D01*
X161444285Y-114954857D01*
X161372857Y-114883428D01*
X161230000Y-114812000D01*
X160872857Y-114812000D01*
X160730000Y-114883428D01*
X160658571Y-114954857D01*
X160587142Y-115097714D01*
X160587142Y-115454857D01*
X160658571Y-115597714D01*
X160730000Y-115669142D01*
X160872857Y-115740571D01*
X161230000Y-115740571D01*
X161372857Y-115669142D01*
X161444285Y-115597714D01*
X158801428Y-115169142D02*
X157658571Y-115169142D01*
X155801428Y-115740571D02*
X155801428Y-114240571D01*
X155230000Y-114240571D01*
X155087142Y-114312000D01*
X155015714Y-114383428D01*
X154944285Y-114526285D01*
X154944285Y-114740571D01*
X155015714Y-114883428D01*
X155087142Y-114954857D01*
X155230000Y-115026285D01*
X155801428Y-115026285D01*
X154301428Y-115740571D02*
X154301428Y-114240571D01*
X153944285Y-114240571D01*
X153730000Y-114312000D01*
X153587142Y-114454857D01*
X153515714Y-114597714D01*
X153444285Y-114883428D01*
X153444285Y-115097714D01*
X153515714Y-115383428D01*
X153587142Y-115526285D01*
X153730000Y-115669142D01*
X153944285Y-115740571D01*
X154301428Y-115740571D01*
X152944285Y-114240571D02*
X152015714Y-114240571D01*
X152515714Y-114812000D01*
X152301428Y-114812000D01*
X152158571Y-114883428D01*
X152087142Y-114954857D01*
X152015714Y-115097714D01*
X152015714Y-115454857D01*
X152087142Y-115597714D01*
X152158571Y-115669142D01*
X152301428Y-115740571D01*
X152730000Y-115740571D01*
X152872857Y-115669142D01*
X152944285Y-115597714D01*
X145340571Y-20633428D02*
X144626285Y-20633428D01*
X144554857Y-19919142D01*
X144626285Y-19990571D01*
X144769142Y-20062000D01*
X145126285Y-20062000D01*
X145269142Y-19990571D01*
X145340571Y-19919142D01*
X145412000Y-19776285D01*
X145412000Y-19419142D01*
X145340571Y-19276285D01*
X145269142Y-19204857D01*
X145126285Y-19133428D01*
X144769142Y-19133428D01*
X144626285Y-19204857D01*
X144554857Y-19276285D01*
X145840571Y-20633428D02*
X146340571Y-19133428D01*
X146840571Y-20633428D01*
X149197714Y-20633428D02*
X148483428Y-20633428D01*
X148412000Y-19919142D01*
X148483428Y-19990571D01*
X148626285Y-20062000D01*
X148983428Y-20062000D01*
X149126285Y-19990571D01*
X149197714Y-19919142D01*
X149269142Y-19776285D01*
X149269142Y-19419142D01*
X149197714Y-19276285D01*
X149126285Y-19204857D01*
X148983428Y-19133428D01*
X148626285Y-19133428D01*
X148483428Y-19204857D01*
X148412000Y-19276285D01*
X149697714Y-20633428D02*
X150197714Y-19133428D01*
X150697714Y-20633428D01*
X154269142Y-19133428D02*
X153412000Y-19133428D01*
X153840571Y-19133428D02*
X153840571Y-20633428D01*
X153697714Y-20419142D01*
X153554857Y-20276285D01*
X153412000Y-20204857D01*
X154840571Y-20490571D02*
X154912000Y-20562000D01*
X155054857Y-20633428D01*
X155412000Y-20633428D01*
X155554857Y-20562000D01*
X155626285Y-20490571D01*
X155697714Y-20347714D01*
X155697714Y-20204857D01*
X155626285Y-19990571D01*
X154769142Y-19133428D01*
X155697714Y-19133428D01*
X156126285Y-20633428D02*
X156626285Y-19133428D01*
X157126285Y-20633428D01*
X159554857Y-19133428D02*
X158697714Y-19133428D01*
X159126285Y-19133428D02*
X159126285Y-20633428D01*
X158983428Y-20419142D01*
X158840571Y-20276285D01*
X158697714Y-20204857D01*
X160126285Y-20490571D02*
X160197714Y-20562000D01*
X160340571Y-20633428D01*
X160697714Y-20633428D01*
X160840571Y-20562000D01*
X160912000Y-20490571D01*
X160983428Y-20347714D01*
X160983428Y-20204857D01*
X160912000Y-19990571D01*
X160054857Y-19133428D01*
X160983428Y-19133428D01*
X161412000Y-20633428D02*
X161912000Y-19133428D01*
X162412000Y-20633428D01*
X143270714Y-172636571D02*
X144127857Y-172636571D01*
X143699285Y-172636571D02*
X143699285Y-171136571D01*
X143842142Y-171350857D01*
X143985000Y-171493714D01*
X144127857Y-171565142D01*
X142699285Y-171279428D02*
X142627857Y-171208000D01*
X142485000Y-171136571D01*
X142127857Y-171136571D01*
X141985000Y-171208000D01*
X141913571Y-171279428D01*
X141842142Y-171422285D01*
X141842142Y-171565142D01*
X141913571Y-171779428D01*
X142770714Y-172636571D01*
X141842142Y-172636571D01*
X141413571Y-171136571D02*
X140913571Y-172636571D01*
X140413571Y-171136571D01*
X137985000Y-172636571D02*
X138842142Y-172636571D01*
X138413571Y-172636571D02*
X138413571Y-171136571D01*
X138556428Y-171350857D01*
X138699285Y-171493714D01*
X138842142Y-171565142D01*
X137413571Y-171279428D02*
X137342142Y-171208000D01*
X137199285Y-171136571D01*
X136842142Y-171136571D01*
X136699285Y-171208000D01*
X136627857Y-171279428D01*
X136556428Y-171422285D01*
X136556428Y-171565142D01*
X136627857Y-171779428D01*
X137485000Y-172636571D01*
X136556428Y-172636571D01*
X136127857Y-171136571D02*
X135627857Y-172636571D01*
X135127857Y-171136571D01*
X132699285Y-171208000D02*
X132842142Y-171136571D01*
X133056428Y-171136571D01*
X133270714Y-171208000D01*
X133413571Y-171350857D01*
X133485000Y-171493714D01*
X133556428Y-171779428D01*
X133556428Y-171993714D01*
X133485000Y-172279428D01*
X133413571Y-172422285D01*
X133270714Y-172565142D01*
X133056428Y-172636571D01*
X132913571Y-172636571D01*
X132699285Y-172565142D01*
X132627857Y-172493714D01*
X132627857Y-171993714D01*
X132913571Y-171993714D01*
X131985000Y-172636571D02*
X131985000Y-171136571D01*
X131127857Y-172636571D01*
X131127857Y-171136571D01*
X130413571Y-172636571D02*
X130413571Y-171136571D01*
X130056428Y-171136571D01*
X129842142Y-171208000D01*
X129699285Y-171350857D01*
X129627857Y-171493714D01*
X129556428Y-171779428D01*
X129556428Y-171993714D01*
X129627857Y-172279428D01*
X129699285Y-172422285D01*
X129842142Y-172565142D01*
X130056428Y-172636571D01*
X130413571Y-172636571D01*
X126985000Y-171208000D02*
X127127857Y-171136571D01*
X127342142Y-171136571D01*
X127556428Y-171208000D01*
X127699285Y-171350857D01*
X127770714Y-171493714D01*
X127842142Y-171779428D01*
X127842142Y-171993714D01*
X127770714Y-172279428D01*
X127699285Y-172422285D01*
X127556428Y-172565142D01*
X127342142Y-172636571D01*
X127199285Y-172636571D01*
X126985000Y-172565142D01*
X126913571Y-172493714D01*
X126913571Y-171993714D01*
X127199285Y-171993714D01*
X126270714Y-172636571D02*
X126270714Y-171136571D01*
X125413571Y-172636571D01*
X125413571Y-171136571D01*
X124699285Y-172636571D02*
X124699285Y-171136571D01*
X124342142Y-171136571D01*
X124127857Y-171208000D01*
X123985000Y-171350857D01*
X123913571Y-171493714D01*
X123842142Y-171779428D01*
X123842142Y-171993714D01*
X123913571Y-172279428D01*
X123985000Y-172422285D01*
X124127857Y-172565142D01*
X124342142Y-172636571D01*
X124699285Y-172636571D01*
X154094571Y-162965142D02*
X154094571Y-162108000D01*
X154094571Y-162536571D02*
X152594571Y-162536571D01*
X152808857Y-162393714D01*
X152951714Y-162250857D01*
X153023142Y-162108000D01*
X152737428Y-163536571D02*
X152666000Y-163608000D01*
X152594571Y-163750857D01*
X152594571Y-164108000D01*
X152666000Y-164250857D01*
X152737428Y-164322285D01*
X152880285Y-164393714D01*
X153023142Y-164393714D01*
X153237428Y-164322285D01*
X154094571Y-163465142D01*
X154094571Y-164393714D01*
X152594571Y-164822285D02*
X154094571Y-165322285D01*
X152594571Y-165822285D01*
X154094571Y-167465142D02*
X152594571Y-167465142D01*
X154094571Y-168179428D02*
X152594571Y-168179428D01*
X154094571Y-169036571D01*
X152594571Y-169036571D01*
X106670542Y-161600714D02*
X107870542Y-161600714D01*
X107013400Y-161200714D01*
X107870542Y-160800714D01*
X106670542Y-160800714D01*
X107870542Y-160000714D02*
X107870542Y-159772142D01*
X107813400Y-159657857D01*
X107699114Y-159543571D01*
X107470542Y-159486428D01*
X107070542Y-159486428D01*
X106841971Y-159543571D01*
X106727685Y-159657857D01*
X106670542Y-159772142D01*
X106670542Y-160000714D01*
X106727685Y-160115000D01*
X106841971Y-160229285D01*
X107070542Y-160286428D01*
X107470542Y-160286428D01*
X107699114Y-160229285D01*
X107813400Y-160115000D01*
X107870542Y-160000714D01*
X106727685Y-159029285D02*
X106670542Y-158857857D01*
X106670542Y-158572142D01*
X106727685Y-158457857D01*
X106784828Y-158400714D01*
X106899114Y-158343571D01*
X107013400Y-158343571D01*
X107127685Y-158400714D01*
X107184828Y-158457857D01*
X107241971Y-158572142D01*
X107299114Y-158800714D01*
X107356257Y-158915000D01*
X107413400Y-158972142D01*
X107527685Y-159029285D01*
X107641971Y-159029285D01*
X107756257Y-158972142D01*
X107813400Y-158915000D01*
X107870542Y-158800714D01*
X107870542Y-158515000D01*
X107813400Y-158343571D01*
X106670542Y-156743571D02*
X106727685Y-156857857D01*
X106784828Y-156915000D01*
X106899114Y-156972142D01*
X107241971Y-156972142D01*
X107356257Y-156915000D01*
X107413400Y-156857857D01*
X107470542Y-156743571D01*
X107470542Y-156572142D01*
X107413400Y-156457857D01*
X107356257Y-156400714D01*
X107241971Y-156343571D01*
X106899114Y-156343571D01*
X106784828Y-156400714D01*
X106727685Y-156457857D01*
X106670542Y-156572142D01*
X106670542Y-156743571D01*
X107470542Y-155315000D02*
X106670542Y-155315000D01*
X107470542Y-155829285D02*
X106841971Y-155829285D01*
X106727685Y-155772142D01*
X106670542Y-155657857D01*
X106670542Y-155486428D01*
X106727685Y-155372142D01*
X106784828Y-155315000D01*
X107470542Y-154915000D02*
X107470542Y-154457857D01*
X107870542Y-154743571D02*
X106841971Y-154743571D01*
X106727685Y-154686428D01*
X106670542Y-154572142D01*
X106670542Y-154457857D01*
X113045942Y-167347714D02*
X114245942Y-167347714D01*
X114245942Y-166890571D01*
X114188800Y-166776285D01*
X114131657Y-166719142D01*
X114017371Y-166662000D01*
X113845942Y-166662000D01*
X113731657Y-166719142D01*
X113674514Y-166776285D01*
X113617371Y-166890571D01*
X113617371Y-167347714D01*
X113160228Y-165462000D02*
X113103085Y-165519142D01*
X113045942Y-165690571D01*
X113045942Y-165804857D01*
X113103085Y-165976285D01*
X113217371Y-166090571D01*
X113331657Y-166147714D01*
X113560228Y-166204857D01*
X113731657Y-166204857D01*
X113960228Y-166147714D01*
X114074514Y-166090571D01*
X114188800Y-165976285D01*
X114245942Y-165804857D01*
X114245942Y-165690571D01*
X114188800Y-165519142D01*
X114131657Y-165462000D01*
X114245942Y-165062000D02*
X114245942Y-164319142D01*
X113788800Y-164719142D01*
X113788800Y-164547714D01*
X113731657Y-164433428D01*
X113674514Y-164376285D01*
X113560228Y-164319142D01*
X113274514Y-164319142D01*
X113160228Y-164376285D01*
X113103085Y-164433428D01*
X113045942Y-164547714D01*
X113045942Y-164890571D01*
X113103085Y-165004857D01*
X113160228Y-165062000D01*
X159868857Y-51478571D02*
X160726000Y-51478571D01*
X160297428Y-51478571D02*
X160297428Y-49978571D01*
X160440285Y-50192857D01*
X160583142Y-50335714D01*
X160726000Y-50407142D01*
X159297428Y-50121428D02*
X159226000Y-50050000D01*
X159083142Y-49978571D01*
X158726000Y-49978571D01*
X158583142Y-50050000D01*
X158511714Y-50121428D01*
X158440285Y-50264285D01*
X158440285Y-50407142D01*
X158511714Y-50621428D01*
X159368857Y-51478571D01*
X158440285Y-51478571D01*
X158011714Y-49978571D02*
X157511714Y-51478571D01*
X157011714Y-49978571D01*
X155368857Y-51478571D02*
X155368857Y-49978571D01*
X154654571Y-51478571D02*
X154654571Y-49978571D01*
X153797428Y-51478571D01*
X153797428Y-49978571D01*
X74921085Y-58793771D02*
X74921085Y-57293771D01*
X74278228Y-58722342D02*
X74063942Y-58793771D01*
X73706800Y-58793771D01*
X73563942Y-58722342D01*
X73492514Y-58650914D01*
X73421085Y-58508057D01*
X73421085Y-58365200D01*
X73492514Y-58222342D01*
X73563942Y-58150914D01*
X73706800Y-58079485D01*
X73992514Y-58008057D01*
X74135371Y-57936628D01*
X74206800Y-57865200D01*
X74278228Y-57722342D01*
X74278228Y-57579485D01*
X74206800Y-57436628D01*
X74135371Y-57365200D01*
X73992514Y-57293771D01*
X73635371Y-57293771D01*
X73421085Y-57365200D01*
X72778228Y-58793771D02*
X72778228Y-57293771D01*
X72206800Y-57293771D01*
X72063942Y-57365200D01*
X71992514Y-57436628D01*
X71921085Y-57579485D01*
X71921085Y-57793771D01*
X71992514Y-57936628D01*
X72063942Y-58008057D01*
X72206800Y-58079485D01*
X72778228Y-58079485D01*
X162872857Y-142918571D02*
X162872857Y-141418571D01*
X162015714Y-142918571D02*
X162658571Y-142061428D01*
X162015714Y-141418571D02*
X162872857Y-142275714D01*
X161515714Y-141418571D02*
X160515714Y-141418571D01*
X161158571Y-142918571D01*
X158801428Y-142347142D02*
X157658571Y-142347142D01*
X155801428Y-142918571D02*
X155801428Y-141418571D01*
X155230000Y-141418571D01*
X155087142Y-141490000D01*
X155015714Y-141561428D01*
X154944285Y-141704285D01*
X154944285Y-141918571D01*
X155015714Y-142061428D01*
X155087142Y-142132857D01*
X155230000Y-142204285D01*
X155801428Y-142204285D01*
X154301428Y-142918571D02*
X154301428Y-141418571D01*
X153944285Y-141418571D01*
X153730000Y-141490000D01*
X153587142Y-141632857D01*
X153515714Y-141775714D01*
X153444285Y-142061428D01*
X153444285Y-142275714D01*
X153515714Y-142561428D01*
X153587142Y-142704285D01*
X153730000Y-142847142D01*
X153944285Y-142918571D01*
X154301428Y-142918571D01*
X152015714Y-142918571D02*
X152872857Y-142918571D01*
X152444285Y-142918571D02*
X152444285Y-141418571D01*
X152587142Y-141632857D01*
X152730000Y-141775714D01*
X152872857Y-141847142D01*
X162872857Y-102278571D02*
X162872857Y-100778571D01*
X162015714Y-102278571D02*
X162658571Y-101421428D01*
X162015714Y-100778571D02*
X162872857Y-101635714D01*
X160730000Y-101278571D02*
X160730000Y-102278571D01*
X161087142Y-100707142D02*
X161444285Y-101778571D01*
X160515714Y-101778571D01*
X158801428Y-101707142D02*
X157658571Y-101707142D01*
X155801428Y-102278571D02*
X155801428Y-100778571D01*
X155230000Y-100778571D01*
X155087142Y-100850000D01*
X155015714Y-100921428D01*
X154944285Y-101064285D01*
X154944285Y-101278571D01*
X155015714Y-101421428D01*
X155087142Y-101492857D01*
X155230000Y-101564285D01*
X155801428Y-101564285D01*
X154301428Y-102278571D02*
X154301428Y-100778571D01*
X153944285Y-100778571D01*
X153730000Y-100850000D01*
X153587142Y-100992857D01*
X153515714Y-101135714D01*
X153444285Y-101421428D01*
X153444285Y-101635714D01*
X153515714Y-101921428D01*
X153587142Y-102064285D01*
X153730000Y-102207142D01*
X153944285Y-102278571D01*
X154301428Y-102278571D01*
X152158571Y-101278571D02*
X152158571Y-102278571D01*
X152515714Y-100707142D02*
X152872857Y-101778571D01*
X151944285Y-101778571D01*
X162872857Y-75354571D02*
X162872857Y-73854571D01*
X162015714Y-75354571D02*
X162658571Y-74497428D01*
X162015714Y-73854571D02*
X162872857Y-74711714D01*
X161444285Y-73997428D02*
X161372857Y-73926000D01*
X161230000Y-73854571D01*
X160872857Y-73854571D01*
X160730000Y-73926000D01*
X160658571Y-73997428D01*
X160587142Y-74140285D01*
X160587142Y-74283142D01*
X160658571Y-74497428D01*
X161515714Y-75354571D01*
X160587142Y-75354571D01*
X158801428Y-74783142D02*
X157658571Y-74783142D01*
X155801428Y-75354571D02*
X155801428Y-73854571D01*
X155230000Y-73854571D01*
X155087142Y-73926000D01*
X155015714Y-73997428D01*
X154944285Y-74140285D01*
X154944285Y-74354571D01*
X155015714Y-74497428D01*
X155087142Y-74568857D01*
X155230000Y-74640285D01*
X155801428Y-74640285D01*
X153801428Y-74568857D02*
X153587142Y-74640285D01*
X153515714Y-74711714D01*
X153444285Y-74854571D01*
X153444285Y-75068857D01*
X153515714Y-75211714D01*
X153587142Y-75283142D01*
X153730000Y-75354571D01*
X154301428Y-75354571D01*
X154301428Y-73854571D01*
X153801428Y-73854571D01*
X153658571Y-73926000D01*
X153587142Y-73997428D01*
X153515714Y-74140285D01*
X153515714Y-74283142D01*
X153587142Y-74426000D01*
X153658571Y-74497428D01*
X153801428Y-74568857D01*
X154301428Y-74568857D01*
X152944285Y-73854571D02*
X151944285Y-73854571D01*
X152587142Y-75354571D01*
X162872857Y-129456571D02*
X162872857Y-127956571D01*
X162015714Y-129456571D02*
X162658571Y-128599428D01*
X162015714Y-127956571D02*
X162872857Y-128813714D01*
X160730000Y-127956571D02*
X161015714Y-127956571D01*
X161158571Y-128028000D01*
X161230000Y-128099428D01*
X161372857Y-128313714D01*
X161444285Y-128599428D01*
X161444285Y-129170857D01*
X161372857Y-129313714D01*
X161301428Y-129385142D01*
X161158571Y-129456571D01*
X160872857Y-129456571D01*
X160730000Y-129385142D01*
X160658571Y-129313714D01*
X160587142Y-129170857D01*
X160587142Y-128813714D01*
X160658571Y-128670857D01*
X160730000Y-128599428D01*
X160872857Y-128528000D01*
X161158571Y-128528000D01*
X161301428Y-128599428D01*
X161372857Y-128670857D01*
X161444285Y-128813714D01*
X158801428Y-128885142D02*
X157658571Y-128885142D01*
X155801428Y-129456571D02*
X155801428Y-127956571D01*
X155230000Y-127956571D01*
X155087142Y-128028000D01*
X155015714Y-128099428D01*
X154944285Y-128242285D01*
X154944285Y-128456571D01*
X155015714Y-128599428D01*
X155087142Y-128670857D01*
X155230000Y-128742285D01*
X155801428Y-128742285D01*
X154301428Y-129456571D02*
X154301428Y-127956571D01*
X153944285Y-127956571D01*
X153730000Y-128028000D01*
X153587142Y-128170857D01*
X153515714Y-128313714D01*
X153444285Y-128599428D01*
X153444285Y-128813714D01*
X153515714Y-129099428D01*
X153587142Y-129242285D01*
X153730000Y-129385142D01*
X153944285Y-129456571D01*
X154301428Y-129456571D01*
X152872857Y-128099428D02*
X152801428Y-128028000D01*
X152658571Y-127956571D01*
X152301428Y-127956571D01*
X152158571Y-128028000D01*
X152087142Y-128099428D01*
X152015714Y-128242285D01*
X152015714Y-128385142D01*
X152087142Y-128599428D01*
X152944285Y-129456571D01*
X152015714Y-129456571D01*
M02*
