M48
; DRILL file {KiCad (6.0.4)} date 2022-04-10T10:46:38 CEST
; FORMAT={-:-/ absolute / metric / decimal}
; #@! TF.CreationDate,2022-04-10T10:46:38+02:00
; #@! TF.GenerationSoftware,Kicad,Pcbnew,(6.0.4)
; #@! TF.FileFunction,Plated,1,2,PTH
FMAT,2
METRIC
; #@! TA.AperFunction,Plated,PTH,ViaDrill
T1C0.800
; #@! TA.AperFunction,Plated,PTH,ComponentDrill
T2C0.800
; #@! TA.AperFunction,Plated,PTH,ComponentDrill
T3C0.900
; #@! TA.AperFunction,Plated,PTH,ComponentDrill
T4C1.000
; #@! TA.AperFunction,Plated,PTH,ComponentDrill
T5C1.100
; #@! TA.AperFunction,Plated,PTH,ComponentDrill
T6C1.150
; #@! TA.AperFunction,Plated,PTH,ComponentDrill
T7C1.200
; #@! TA.AperFunction,Plated,PTH,ComponentDrill
T8C1.300
%
G90
G05
T1
X67.959Y-83.058
X75.043Y-83.058
X76.454Y-64.267
X76.454Y-68.072
X78.853Y-75.692
X78.924Y-70.752
X85.72Y-64.23
X90.932Y-105.156
X95.599Y-57.201
X102.0Y-57.15
X106.869Y-107.696
X117.475Y-107.696
T2
X67.8Y-147.2
X67.8Y-157.2
X69.772Y-37.156
X69.772Y-41.24
X72.212Y-53.178
X75.4Y-147.2
X75.4Y-157.2
X77.212Y-53.178
X78.74Y-80.812
X78.74Y-85.812
X79.772Y-37.156
X79.772Y-41.24
X82.8Y-147.2
X82.8Y-157.2
X83.312Y-68.072
X83.312Y-70.612
X83.312Y-73.152
X83.312Y-75.692
X83.312Y-78.232
X83.312Y-80.772
X83.312Y-83.312
X83.312Y-85.852
X83.312Y-88.392
X83.312Y-90.932
X83.312Y-93.472
X83.312Y-96.012
X83.312Y-98.552
X83.312Y-101.092
X83.896Y-37.156
X83.896Y-41.24
X86.269Y-53.178
X86.96Y-125.476
X88.336Y-111.2
X88.336Y-121.2
X90.4Y-147.2
X90.4Y-157.2
X90.932Y-68.072
X90.932Y-70.612
X90.932Y-73.152
X90.932Y-75.692
X90.932Y-78.232
X90.932Y-80.772
X90.932Y-83.312
X90.932Y-85.852
X90.932Y-88.392
X90.932Y-90.932
X90.932Y-93.472
X90.932Y-96.012
X90.932Y-98.552
X90.932Y-101.092
X91.269Y-53.178
X93.896Y-37.156
X93.896Y-41.24
X94.3Y-105.2
X94.488Y-60.612
X94.488Y-70.612
X94.526Y-86.007
X94.526Y-101.007
X96.96Y-125.476
X97.235Y-136.271
X97.9Y-147.2
X97.9Y-157.2
X98.12Y-37.176
X98.12Y-41.26
X99.299Y-80.772
X99.299Y-83.312
X99.299Y-85.852
X99.299Y-88.392
X99.299Y-90.932
X99.299Y-93.472
X99.299Y-96.012
X99.299Y-98.552
X99.299Y-101.092
X99.3Y-105.2
X99.648Y-125.476
X100.366Y-53.96
X100.6Y-114.3
X100.6Y-119.3
X102.5Y-111.4
X105.366Y-53.96
X106.919Y-80.772
X106.919Y-83.312
X106.919Y-85.852
X106.919Y-88.392
X106.919Y-90.932
X106.919Y-93.472
X106.919Y-96.012
X106.919Y-98.552
X106.919Y-101.092
X107.235Y-136.271
X107.268Y-147.32
X108.12Y-37.176
X108.12Y-41.26
X109.648Y-125.476
X111.248Y-23.206
X111.248Y-28.206
X117.268Y-147.32
X117.5Y-111.4
X128.524Y-34.471
X128.524Y-39.471
X128.774Y-24.516
X128.774Y-29.516
X150.0Y-35.6
X150.0Y-40.0
X160.0Y-35.6
X160.0Y-40.0
T3
X88.138Y-59.436
X90.678Y-59.436
T4
X69.342Y-62.992
X69.342Y-65.532
X69.342Y-68.072
X69.342Y-70.612
X69.342Y-73.152
X71.882Y-62.992
X71.882Y-65.532
X71.882Y-68.072
X71.882Y-70.612
X71.882Y-73.152
X102.87Y-64.668
X110.47Y-64.668
T5
X69.772Y-45.304
X69.772Y-49.368
X71.628Y-142.146
X71.628Y-152.146
X79.2Y-142.146
X79.2Y-152.146
X79.772Y-45.304
X79.772Y-49.368
X83.896Y-45.304
X83.896Y-49.368
X86.614Y-142.146
X86.614Y-152.146
X92.4Y-111.2
X92.4Y-121.2
X93.896Y-45.304
X93.896Y-49.368
X94.234Y-142.146
X94.234Y-152.146
X96.464Y-111.2
X96.464Y-121.2
X98.12Y-45.324
X98.12Y-49.388
X101.6Y-142.146
X101.6Y-152.146
X101.854Y-131.501
X104.394Y-131.501
X106.934Y-131.501
X108.12Y-45.324
X108.12Y-49.388
X108.32Y-152.6
X110.86Y-152.6
X113.4Y-152.6
X120.138Y-23.206
X120.138Y-25.746
X120.138Y-28.286
X136.284Y-35.682
X136.284Y-40.0
X146.284Y-35.682
X146.284Y-40.0
T6
X71.4Y-163.4
X71.4Y-168.4
X76.4Y-163.4
X76.4Y-168.4
X81.4Y-163.4
X81.4Y-168.4
X83.024Y-24.254
X83.024Y-29.254
X86.4Y-163.4
X86.4Y-168.4
X88.024Y-24.254
X88.024Y-29.254
X91.4Y-163.4
X91.4Y-168.4
X93.024Y-24.254
X93.024Y-29.254
X96.4Y-163.4
X96.4Y-168.4
X98.024Y-24.254
X98.024Y-29.254
X105.49Y-163.402
X105.49Y-168.402
X110.49Y-163.402
X110.49Y-168.402
X126.45Y-163.37
X126.45Y-168.37
X131.45Y-163.37
X131.45Y-168.37
X136.45Y-163.37
X136.45Y-168.37
X141.45Y-163.37
X141.45Y-168.37
X145.0Y-24.0
X145.0Y-29.0
X150.0Y-24.0
X150.0Y-29.0
X155.0Y-24.0
X155.0Y-29.0
X160.0Y-24.0
X160.0Y-29.0
T7
X117.856Y-160.8
X117.856Y-168.8
X148.6Y-160.775
X148.6Y-168.775
X151.339Y-46.22
X151.36Y-56.064
X151.4Y-69.683
X151.4Y-83.175
X151.4Y-96.667
X151.4Y-110.159
X151.4Y-123.718
X151.4Y-137.27
X151.497Y-150.984
X159.339Y-46.22
X159.36Y-56.064
X159.4Y-69.683
X159.4Y-83.175
X159.4Y-96.667
X159.4Y-110.159
X159.4Y-123.718
X159.4Y-137.27
X159.497Y-150.984
T8
X121.138Y-52.444
X121.138Y-59.944
X121.163Y-146.954
X121.163Y-154.454
X121.178Y-66.033
X121.178Y-73.533
X121.178Y-79.495
X121.178Y-86.995
X121.178Y-92.957
X121.178Y-100.457
X121.178Y-106.419
X121.178Y-113.919
X121.178Y-119.948
X121.178Y-127.448
X121.178Y-133.47
X121.178Y-140.97
X136.398Y-52.444
X136.398Y-59.944
X136.423Y-146.954
X136.423Y-154.454
X136.438Y-66.033
X136.438Y-73.533
X136.438Y-79.495
X136.438Y-86.995
X136.438Y-92.957
X136.438Y-100.457
X136.438Y-106.419
X136.438Y-113.919
X136.438Y-119.948
X136.438Y-127.448
X136.438Y-133.47
X136.438Y-140.97
X141.438Y-52.444
X141.438Y-59.944
X141.463Y-146.954
X141.463Y-154.454
X141.478Y-66.033
X141.478Y-73.533
X141.478Y-79.495
X141.478Y-86.995
X141.478Y-92.957
X141.478Y-100.457
X141.478Y-106.419
X141.478Y-113.919
X141.478Y-119.948
X141.478Y-127.448
X141.478Y-133.47
X141.478Y-140.97
X146.478Y-52.444
X146.478Y-59.944
X146.503Y-146.954
X146.503Y-154.454
X146.518Y-66.033
X146.518Y-73.533
X146.518Y-79.495
X146.518Y-86.995
X146.518Y-92.957
X146.518Y-100.457
X146.518Y-106.419
X146.518Y-113.919
X146.518Y-119.948
X146.518Y-127.448
X146.518Y-133.47
X146.518Y-140.97
T0
M30
