<?xml version="1.0" standalone="no"?>
<!DOCTYPE svg PUBLIC "-//W3C//DTD SVG 1.1//EN"
"http://www.w3.org/Graphics/SVG/1.1/DTD/svg11.dtd">
<svg width="402.52" height="629.291" viewBox="0 0 8385.83 13110.2" version="1.1"
xmlns="http://www.w3.org/2000/svg"
xmlns:xlink="http://www.w3.org/1999/xlink">
<polyline points="5448,2730.51 5448.04,2730.51 5449.26,2730.51 5451.89,2730.51 5452.61,2730.51 5455.03,2730.51 5455.54,2730.51 5457.87,2730.51 5458.31,2730.51 5460.63,2730.51 5461.14,2730.51 5463.56,2730.51 5464.29,2730.51 5466.91,2730.51 5468.13,2730.51 5468.17,2730.51" style="stroke:rgb(255,0,0);stroke-width:18.897638;fill:none;stroke-opacity:0.5;stroke-linecap:round;stroke-linejoin:round;;fill:none"/>
<polyline points="5448,2730.51 5448.04,2730.51 5449.26,2730.51 5451.89,2730.51 5452.61,2730.51 5455.03,2730.51 5455.54,2730.51 5457.87,2730.51 5458.31,2730.51 5460.63,2730.51 5461.14,2730.51 5463.56,2730.51 5464.29,2730.51 5466.91,2730.51 5468.13,2730.51 5468.17,2730.51" style="stroke:rgb(0,0,0);stroke-width:1px;fill:none;stroke-opacity:1;stroke-linecap:round;stroke-linejoin:round;;fill:none"/>
<polyline points="5468.17,2730.51 5468.13,2730.51 5466.91,2730.51 5464.29,2730.51 5463.56,2730.51 5461.14,2730.51 5460.63,2730.51 5458.31,2730.51 5457.87,2730.51 5455.54,2730.51 5455.03,2730.51 5452.61,2730.51 5451.89,2730.51 5449.26,2730.51 5448.04,2730.51 5448.01,2730.51" style="stroke:rgb(255,0,0);stroke-width:18.897638;fill:none;stroke-opacity:0.5;stroke-linecap:round;stroke-linejoin:round;;fill:none"/>
<polyline points="5468.17,2730.51 5468.13,2730.51 5466.91,2730.51 5464.29,2730.51 5463.56,2730.51 5461.14,2730.51 5460.63,2730.51 5458.31,2730.51 5457.87,2730.51 5455.54,2730.51 5455.03,2730.51 5452.61,2730.51 5451.89,2730.51 5449.26,2730.51 5448.04,2730.51 5448.01,2730.51" style="stroke:rgb(0,0,0);stroke-width:1px;fill:none;stroke-opacity:1;stroke-linecap:round;stroke-linejoin:round;;fill:none"/>
<polyline points="5445.67,2540.35 5445.63,2540.35 5444.41,2540.35 5441.79,2540.35 5441.07,2540.35 5438.65,2540.35 5438.14,2540.35 5435.81,2540.35 5435.37,2540.35 5433.04,2540.35 5432.53,2540.35 5430.11,2540.35 5429.39,2540.35 5426.76,2540.35 5425.55,2540.35 5425.51,2540.35" style="stroke:rgb(255,0,0);stroke-width:18.897638;fill:none;stroke-opacity:0.5;stroke-linecap:round;stroke-linejoin:round;;fill:none"/>
<polyline points="5445.67,2540.35 5445.63,2540.35 5444.41,2540.35 5441.79,2540.35 5441.07,2540.35 5438.65,2540.35 5438.14,2540.35 5435.81,2540.35 5435.37,2540.35 5433.04,2540.35 5432.53,2540.35 5430.11,2540.35 5429.39,2540.35 5426.76,2540.35 5425.55,2540.35 5425.51,2540.35" style="stroke:rgb(0,0,0);stroke-width:1px;fill:none;stroke-opacity:1;stroke-linecap:round;stroke-linejoin:round;;fill:none"/>
<polyline points="5425.5,2540.35 5425.55,2540.35 5426.76,2540.35 5429.39,2540.35 5430.11,2540.35 5432.53,2540.35 5433.04,2540.35 5435.37,2540.35 5435.81,2540.35 5438.14,2540.35 5438.65,2540.35 5441.07,2540.35 5441.79,2540.35 5444.41,2540.35 5445.63,2540.35 5445.68,2540.35" style="stroke:rgb(255,0,0);stroke-width:18.897638;fill:none;stroke-opacity:0.5;stroke-linecap:round;stroke-linejoin:round;;fill:none"/>
<polyline points="5425.5,2540.35 5425.55,2540.35 5426.76,2540.35 5429.39,2540.35 5430.11,2540.35 5432.53,2540.35 5433.04,2540.35 5435.37,2540.35 5435.81,2540.35 5438.14,2540.35 5438.65,2540.35 5441.07,2540.35 5441.79,2540.35 5444.41,2540.35 5445.63,2540.35 5445.68,2540.35" style="stroke:rgb(0,0,0);stroke-width:1px;fill:none;stroke-opacity:1;stroke-linecap:round;stroke-linejoin:round;;fill:none"/>
</svg>
