<?xml version="1.0" standalone="no"?>
<!DOCTYPE svg PUBLIC "-//W3C//DTD SVG 1.1//EN"
"http://www.w3.org/Graphics/SVG/1.1/DTD/svg11.dtd">
<svg width="402.52" height="629.291" viewBox="0 0 8385.83 13110.2" version="1.1"
xmlns="http://www.w3.org/2000/svg"
xmlns:xlink="http://www.w3.org/1999/xlink">
<circle cx="4371.5" cy="10674.8" r="31.4961" style=""/>
<circle cx="3584.09" cy="10674.8" r="31.4961" style=""/>
<circle cx="2846.46" cy="11452.8" r="31.4961" style=""/>
<circle cx="2255.91" cy="11452.8" r="31.4961" style=""/>
<circle cx="1657.48" cy="11452.8" r="31.4961" style=""/>
<circle cx="1074.8" cy="11452.8" r="31.4961" style=""/>
<circle cx="476.378" cy="11452.8" r="31.4961" style=""/>
<circle cx="476.378" cy="10665.4" r="31.4961" style=""/>
<circle cx="1074.8" cy="10665.4" r="31.4961" style=""/>
<circle cx="1657.48" cy="10665.4" r="31.4961" style=""/>
<circle cx="2255.91" cy="10665.4" r="31.4961" style=""/>
<circle cx="2846.46" cy="10665.4" r="31.4961" style=""/>
<circle cx="2794.09" cy="9804.8" r="31.4961" style=""/>
<circle cx="3581.5" cy="9804.8" r="31.4961" style=""/>
<circle cx="3771.5" cy="8954.8" r="31.4961" style=""/>
<circle cx="4389.76" cy="7846.46" r="31.4961" style=""/>
<circle cx="4387.8" cy="7554.8" r="31.4961" style=""/>
<circle cx="3556.61" cy="7034.8" r="31.4961" style=""/>
<circle cx="3556.61" cy="6834.8" r="31.4961" style=""/>
<circle cx="3556.61" cy="6634.8" r="31.4961" style=""/>
<circle cx="3556.61" cy="6434.8" r="31.4961" style=""/>
<circle cx="3556.61" cy="6234.8" r="31.4961" style=""/>
<circle cx="3556.61" cy="6034.8" r="31.4961" style=""/>
<circle cx="3556.61" cy="5834.8" r="31.4961" style=""/>
<circle cx="3556.61" cy="5634.8" r="31.4961" style=""/>
<circle cx="3556.61" cy="5434.8" r="31.4961" style=""/>
<circle cx="2956.61" cy="5434.8" r="31.4961" style=""/>
<circle cx="2956.61" cy="5634.8" r="31.4961" style=""/>
<circle cx="2956.61" cy="5834.8" r="31.4961" style=""/>
<circle cx="2956.61" cy="6034.8" r="31.4961" style=""/>
<circle cx="2956.61" cy="6234.8" r="31.4961" style=""/>
<circle cx="2956.61" cy="6434.8" r="31.4961" style=""/>
<circle cx="2956.61" cy="6634.8" r="31.4961" style=""/>
<circle cx="2956.61" cy="6834.8" r="31.4961" style=""/>
<circle cx="2956.61" cy="7034.8" r="31.4961" style=""/>
<circle cx="2956.69" cy="7358.27" r="31.4961" style=""/>
<circle cx="3552.68" cy="7554.8" r="31.4961" style=""/>
<circle cx="3208.66" cy="7846.46" r="31.4961" style=""/>
<circle cx="3059.06" cy="8074.8" r="31.4961" style=""/>
<circle cx="3059.06" cy="8468.5" r="31.4961" style=""/>
<circle cx="2984.09" cy="8954.8" r="31.4961" style=""/>
<circle cx="2772.44" cy="8954.8" r="31.4961" style=""/>
<circle cx="1985.04" cy="8954.8" r="31.4961" style=""/>
<circle cx="2093.39" cy="8618.11" r="31.4961" style=""/>
<circle cx="2093.39" cy="7830.71" r="31.4961" style=""/>
<circle cx="2562.99" cy="7358.27" r="31.4961" style=""/>
<circle cx="2297.8" cy="7354.8" r="31.4961" style=""/>
<circle cx="2580.79" cy="7028.11" r="31.4961" style=""/>
<circle cx="2297.8" cy="7034.8" r="31.4961" style=""/>
<circle cx="2297.8" cy="6834.8" r="31.4961" style=""/>
<circle cx="2297.8" cy="6634.8" r="31.4961" style=""/>
<circle cx="1697.8" cy="7034.8" r="31.4961" style=""/>
<circle cx="1697.8" cy="6834.8" r="31.4961" style=""/>
<circle cx="1697.8" cy="6634.8" r="31.4961" style=""/>
<circle cx="1697.8" cy="6434.8" r="31.4961" style=""/>
<circle cx="1697.8" cy="6234.8" r="31.4961" style=""/>
<circle cx="1697.8" cy="6034.8" r="31.4961" style=""/>
<circle cx="1697.8" cy="5834.8" r="31.4961" style=""/>
<circle cx="1697.8" cy="5634.8" r="31.4961" style=""/>
<circle cx="1697.8" cy="5434.8" r="31.4961" style=""/>
<circle cx="1697.8" cy="5234.8" r="31.4961" style=""/>
<circle cx="2297.8" cy="5834.8" r="31.4961" style=""/>
<circle cx="2297.8" cy="6034.8" r="31.4961" style=""/>
<circle cx="2297.8" cy="6234.8" r="31.4961" style=""/>
<circle cx="2297.8" cy="6434.8" r="31.4961" style=""/>
<circle cx="2580.79" cy="5847.01" r="31.4961" style=""/>
<circle cx="2297.8" cy="5634.8" r="31.4961" style=""/>
<circle cx="2297.8" cy="5434.8" r="31.4961" style=""/>
<circle cx="2297.8" cy="5234.8" r="31.4961" style=""/>
<circle cx="2297.8" cy="5034.8" r="31.4961" style=""/>
<circle cx="2297.8" cy="4834.8" r="31.4961" style=""/>
<circle cx="2577.8" cy="4634.8" r="31.4961" style=""/>
<circle cx="2297.8" cy="4634.8" r="31.4961" style=""/>
<circle cx="2297.8" cy="4434.8" r="31.4961" style=""/>
<circle cx="1887.4" cy="4132.28" r="31.4961" style=""/>
<circle cx="1157.8" cy="4135.2" r="31.4961" style=""/>
<circle cx="1157.8" cy="4434.8" r="31.4961" style=""/>
<circle cx="1352.28" cy="4645.83" r="31.4961" style=""/>
<circle cx="488.898" cy="5614.8" r="31.4961" style=""/>
<circle cx="1046.69" cy="5614.8" r="31.4961" style=""/>
<circle cx="1337.8" cy="5831.65" r="31.4961" style=""/>
<circle cx="1337.8" cy="5437.95" r="31.4961" style=""/>
<circle cx="1346.69" cy="5034.8" r="31.4961" style=""/>
<circle cx="1697.8" cy="5034.8" r="31.4961" style=""/>
<circle cx="1697.8" cy="4834.8" r="31.4961" style=""/>
<circle cx="1697.8" cy="4634.8" r="31.4961" style=""/>
<circle cx="1697.8" cy="4434.8" r="31.4961" style=""/>
<circle cx="2577.8" cy="3847.4" r="31.4961" style=""/>
<circle cx="2625.83" cy="3462.83" r="31.4961" style=""/>
<circle cx="2324.65" cy="3054.8" r="31.4961" style=""/>
<circle cx="1930.94" cy="3054.8" r="31.4961" style=""/>
<circle cx="1217.8" cy="3054.8" r="31.4961" style=""/>
<circle cx="824.094" cy="3054.8" r="31.4961" style=""/>
<circle cx="631.969" cy="2114.8" r="31.4961" style=""/>
<circle cx="631.969" cy="1793.23" r="31.4961" style=""/>
<circle cx="1419.37" cy="1793.23" r="31.4961" style=""/>
<circle cx="1419.37" cy="2114.8" r="31.4961" style=""/>
<circle cx="1744.09" cy="1793.23" r="31.4961" style=""/>
<circle cx="1744.09" cy="2114.8" r="31.4961" style=""/>
<circle cx="2531.5" cy="1793.23" r="31.4961" style=""/>
<circle cx="2531.5" cy="2114.8" r="31.4961" style=""/>
<circle cx="2864.09" cy="1794.8" r="31.4961" style=""/>
<circle cx="2864.09" cy="2116.38" r="31.4961" style=""/>
<circle cx="3434.65" cy="3116.38" r="31.4961" style=""/>
<circle cx="3129.76" cy="3458.82" r="31.4961" style=""/>
<circle cx="3040.94" cy="3116.38" r="31.4961" style=""/>
<circle cx="3651.5" cy="2116.38" r="31.4961" style=""/>
<circle cx="3651.5" cy="1794.8" r="31.4961" style=""/>
<circle cx="3897.8" cy="1088.5" r="31.4961" style=""/>
<circle cx="3897.8" cy="694.803" r="31.4961" style=""/>
<circle cx="5277.8" cy="797.953" r="31.4961" style=""/>
<circle cx="5277.8" cy="1191.65" r="31.4961" style=""/>
<circle cx="5277.8" cy="1774.8" r="31.4961" style=""/>
<circle cx="5277.8" cy="2168.5" r="31.4961" style=""/>
<circle cx="6944.09" cy="1788.35" r="31.4961" style=""/>
<circle cx="6944.09" cy="2134.8" r="31.4961" style=""/>
<circle cx="7731.5" cy="1788.35" r="31.4961" style=""/>
<circle cx="7731.5" cy="2134.8" r="31.4961" style=""/>
<circle cx="2077.8" cy="3754.8" r="35.4331" style=""/>
<circle cx="2277.8" cy="3754.8" r="35.4331" style=""/>
<circle cx="797.795" cy="4234.8" r="39.3701" style=""/>
<circle cx="797.795" cy="4034.8" r="39.3701" style=""/>
<circle cx="597.795" cy="4034.8" r="39.3701" style=""/>
<circle cx="597.795" cy="4234.8" r="39.3701" style=""/>
<circle cx="597.795" cy="4434.8" r="39.3701" style=""/>
<circle cx="797.795" cy="4434.8" r="39.3701" style=""/>
<circle cx="797.795" cy="4634.8" r="39.3701" style=""/>
<circle cx="597.795" cy="4834.8" r="39.3701" style=""/>
<circle cx="597.795" cy="4634.8" r="39.3701" style=""/>
<circle cx="797.795" cy="4834.8" r="39.3701" style=""/>
<circle cx="3237.8" cy="4166.77" r="39.3701" style=""/>
<circle cx="3836.22" cy="4166.77" r="39.3701" style=""/>
<circle cx="4066.93" cy="11090.6" r="43.3071" style=""/>
<circle cx="3866.93" cy="11090.6" r="43.3071" style=""/>
<circle cx="3666.93" cy="11090.6" r="43.3071" style=""/>
<circle cx="3137.8" cy="11054.8" r="43.3071" style=""/>
<circle cx="2557.8" cy="11054.8" r="43.3071" style=""/>
<circle cx="1957.8" cy="11054.8" r="43.3071" style=""/>
<circle cx="1374.02" cy="11054.8" r="43.3071" style=""/>
<circle cx="777.795" cy="11054.8" r="43.3071" style=""/>
<circle cx="777.795" cy="10267.4" r="43.3071" style=""/>
<circle cx="1374.02" cy="10267.4" r="43.3071" style=""/>
<circle cx="1957.8" cy="10267.4" r="43.3071" style=""/>
<circle cx="2557.8" cy="10267.4" r="43.3071" style=""/>
<circle cx="3137.8" cy="10267.4" r="43.3071" style=""/>
<circle cx="3557.8" cy="9429.21" r="43.3071" style=""/>
<circle cx="3357.8" cy="9429.21" r="43.3071" style=""/>
<circle cx="3157.8" cy="9429.21" r="43.3071" style=""/>
<circle cx="2733.39" cy="8618.11" r="43.3071" style=""/>
<circle cx="2413.39" cy="8618.11" r="43.3071" style=""/>
<circle cx="2413.39" cy="7830.71" r="43.3071" style=""/>
<circle cx="2733.39" cy="7830.71" r="43.3071" style=""/>
<circle cx="631.969" cy="2754.8" r="43.3071" style=""/>
<circle cx="631.969" cy="2434.8" r="43.3071" style=""/>
<circle cx="1419.37" cy="2754.8" r="43.3071" style=""/>
<circle cx="1419.37" cy="2434.8" r="43.3071" style=""/>
<circle cx="1744.09" cy="2754.8" r="43.3071" style=""/>
<circle cx="1744.09" cy="2434.8" r="43.3071" style=""/>
<circle cx="2531.5" cy="2754.8" r="43.3071" style=""/>
<circle cx="2531.5" cy="2434.8" r="43.3071" style=""/>
<circle cx="2864.09" cy="2436.38" r="43.3071" style=""/>
<circle cx="2864.09" cy="2756.38" r="43.3071" style=""/>
<circle cx="3651.5" cy="2756.38" r="43.3071" style=""/>
<circle cx="3651.5" cy="2436.38" r="43.3071" style=""/>
<circle cx="4597.8" cy="1094.8" r="43.3071" style=""/>
<circle cx="4597.8" cy="894.803" r="43.3071" style=""/>
<circle cx="4597.8" cy="694.803" r="43.3071" style=""/>
<circle cx="5864.09" cy="1794.8" r="43.3071" style=""/>
<circle cx="5864.09" cy="2134.8" r="43.3071" style=""/>
<circle cx="6651.5" cy="1794.8" r="43.3071" style=""/>
<circle cx="6651.5" cy="2134.8" r="43.3071" style=""/>
<circle cx="6275.59" cy="11938.6" r="45.2756" style=""/>
<circle cx="6275.59" cy="12332.3" r="45.2756" style=""/>
<circle cx="5881.89" cy="12332.3" r="45.2756" style=""/>
<circle cx="5881.89" cy="11938.6" r="45.2756" style=""/>
<circle cx="5488.19" cy="11938.6" r="45.2756" style=""/>
<circle cx="5488.19" cy="12332.3" r="45.2756" style=""/>
<circle cx="5094.49" cy="12332.3" r="45.2756" style=""/>
<circle cx="5094.49" cy="11938.6" r="45.2756" style=""/>
<circle cx="3837.8" cy="11941.1" r="45.2756" style=""/>
<circle cx="3837.8" cy="12334.8" r="45.2756" style=""/>
<circle cx="3444.09" cy="12334.8" r="45.2756" style=""/>
<circle cx="3444.09" cy="11941.1" r="45.2756" style=""/>
<circle cx="2728.35" cy="11940.9" r="45.2756" style=""/>
<circle cx="2728.35" cy="12334.6" r="45.2756" style=""/>
<circle cx="2334.65" cy="11940.9" r="45.2756" style=""/>
<circle cx="2334.65" cy="12334.6" r="45.2756" style=""/>
<circle cx="1940.94" cy="12334.6" r="45.2756" style=""/>
<circle cx="1940.94" cy="11940.9" r="45.2756" style=""/>
<circle cx="1547.24" cy="11940.9" r="45.2756" style=""/>
<circle cx="1547.24" cy="12334.6" r="45.2756" style=""/>
<circle cx="1153.54" cy="11940.9" r="45.2756" style=""/>
<circle cx="1153.54" cy="12334.6" r="45.2756" style=""/>
<circle cx="759.843" cy="12334.6" r="45.2756" style=""/>
<circle cx="759.843" cy="11940.9" r="45.2756" style=""/>
<circle cx="1675.43" cy="1171.02" r="45.2756" style=""/>
<circle cx="1675.43" cy="777.323" r="45.2756" style=""/>
<circle cx="2069.13" cy="777.323" r="45.2756" style=""/>
<circle cx="2069.13" cy="1171.02" r="45.2756" style=""/>
<circle cx="2462.83" cy="777.323" r="45.2756" style=""/>
<circle cx="2462.83" cy="1171.02" r="45.2756" style=""/>
<circle cx="2856.54" cy="777.323" r="45.2756" style=""/>
<circle cx="2856.54" cy="1171.02" r="45.2756" style=""/>
<circle cx="6555.43" cy="757.323" r="45.2756" style=""/>
<circle cx="6949.13" cy="757.323" r="45.2756" style=""/>
<circle cx="6555.43" cy="1151.02" r="45.2756" style=""/>
<circle cx="6949.13" cy="1151.02" r="45.2756" style=""/>
<circle cx="7342.83" cy="757.323" r="45.2756" style=""/>
<circle cx="7736.54" cy="757.323" r="45.2756" style=""/>
<circle cx="7342.83" cy="1151.02" r="45.2756" style=""/>
<circle cx="7736.54" cy="1151.02" r="45.2756" style=""/>
<circle cx="7696.61" cy="10963.3" r="47.2441" style=""/>
<circle cx="7066.69" cy="10963.3" r="47.2441" style=""/>
<circle cx="6838.58" cy="11734.3" r="47.2441" style=""/>
<circle cx="6838.58" cy="12364.2" r="47.2441" style=""/>
<circle cx="4417.8" cy="11736.2" r="47.2441" style=""/>
<circle cx="4417.8" cy="12366.1" r="47.2441" style=""/>
<circle cx="7059.06" cy="9883.46" r="47.2441" style=""/>
<circle cx="7688.98" cy="9883.46" r="47.2441" style=""/>
<circle cx="7059.06" cy="8816.38" r="47.2441" style=""/>
<circle cx="7688.98" cy="8816.38" r="47.2441" style=""/>
<circle cx="7059.06" cy="7748.74" r="47.2441" style=""/>
<circle cx="7688.98" cy="7748.74" r="47.2441" style=""/>
<circle cx="7059.06" cy="6686.38" r="47.2441" style=""/>
<circle cx="7688.98" cy="6686.38" r="47.2441" style=""/>
<circle cx="7059.06" cy="5624.02" r="47.2441" style=""/>
<circle cx="7688.98" cy="5624.02" r="47.2441" style=""/>
<circle cx="7059.06" cy="4561.65" r="47.2441" style=""/>
<circle cx="7688.98" cy="4561.65" r="47.2441" style=""/>
<circle cx="7055.91" cy="3489.29" r="47.2441" style=""/>
<circle cx="7685.83" cy="3489.29" r="47.2441" style=""/>
<circle cx="7054.25" cy="2714.17" r="47.2441" style=""/>
<circle cx="7684.17" cy="2714.17" r="47.2441" style=""/>
<circle cx="6673.46" cy="11236.5" r="51.1811" style=""/>
<circle cx="6276.61" cy="11236.5" r="51.1811" style=""/>
<circle cx="5879.76" cy="11236.5" r="51.1811" style=""/>
<circle cx="6673.46" cy="10646" r="51.1811" style=""/>
<circle cx="6276.61" cy="10646" r="51.1811" style=""/>
<circle cx="5879.76" cy="10646" r="51.1811" style=""/>
<circle cx="5880.94" cy="10174.8" r="51.1811" style=""/>
<circle cx="6277.8" cy="10174.8" r="51.1811" style=""/>
<circle cx="6674.65" cy="10174.8" r="51.1811" style=""/>
<circle cx="5880.94" cy="9584.25" r="51.1811" style=""/>
<circle cx="6277.8" cy="9584.25" r="51.1811" style=""/>
<circle cx="6674.65" cy="9584.25" r="51.1811" style=""/>
<circle cx="6674.65" cy="9110.08" r="51.1811" style=""/>
<circle cx="6277.8" cy="9110.08" r="51.1811" style=""/>
<circle cx="5880.94" cy="9110.08" r="51.1811" style=""/>
<circle cx="5880.94" cy="8519.53" r="51.1811" style=""/>
<circle cx="6277.8" cy="8519.53" r="51.1811" style=""/>
<circle cx="6674.65" cy="8519.53" r="51.1811" style=""/>
<circle cx="6277.8" cy="8044.8" r="51.1811" style=""/>
<circle cx="6674.65" cy="8044.8" r="51.1811" style=""/>
<circle cx="6277.8" cy="7454.25" r="51.1811" style=""/>
<circle cx="6674.65" cy="7454.25" r="51.1811" style=""/>
<circle cx="6674.65" cy="6984.8" r="51.1811" style=""/>
<circle cx="6674.65" cy="6394.25" r="51.1811" style=""/>
<circle cx="6277.8" cy="6394.25" r="51.1811" style=""/>
<circle cx="5880.94" cy="6394.25" r="51.1811" style=""/>
<circle cx="5880.94" cy="5924.8" r="51.1811" style=""/>
<circle cx="6277.8" cy="5924.8" r="51.1811" style=""/>
<circle cx="6674.65" cy="5924.8" r="51.1811" style=""/>
<circle cx="6277.8" cy="5334.25" r="51.1811" style=""/>
<circle cx="6674.65" cy="5334.25" r="51.1811" style=""/>
<circle cx="6674.65" cy="4864.8" r="51.1811" style=""/>
<circle cx="6277.8" cy="4864.8" r="51.1811" style=""/>
<circle cx="5880.94" cy="5334.25" r="51.1811" style=""/>
<circle cx="5880.94" cy="4864.8" r="51.1811" style=""/>
<circle cx="5880.94" cy="4274.25" r="51.1811" style=""/>
<circle cx="5877.8" cy="3794.8" r="51.1811" style=""/>
<circle cx="6274.65" cy="3794.8" r="51.1811" style=""/>
<circle cx="6674.65" cy="4274.25" r="51.1811" style=""/>
<circle cx="6277.8" cy="4274.25" r="51.1811" style=""/>
<circle cx="6671.5" cy="3794.8" r="51.1811" style=""/>
<circle cx="6671.5" cy="3204.25" r="51.1811" style=""/>
<circle cx="6274.65" cy="3204.25" r="51.1811" style=""/>
<circle cx="5877.8" cy="3204.25" r="51.1811" style=""/>
<circle cx="4676.22" cy="3204.25" r="51.1811" style=""/>
<circle cx="4676.22" cy="3794.8" r="51.1811" style=""/>
<circle cx="4679.37" cy="4274.25" r="51.1811" style=""/>
<circle cx="4679.37" cy="4864.8" r="51.1811" style=""/>
<circle cx="4679.37" cy="5334.25" r="51.1811" style=""/>
<circle cx="4679.37" cy="5924.8" r="51.1811" style=""/>
<circle cx="4679.37" cy="6394.25" r="51.1811" style=""/>
<circle cx="5880.94" cy="6984.8" r="51.1811" style=""/>
<circle cx="6277.8" cy="6984.8" r="51.1811" style=""/>
<circle cx="5880.94" cy="7454.25" r="51.1811" style=""/>
<circle cx="5880.94" cy="8044.8" r="51.1811" style=""/>
<circle cx="4679.37" cy="6984.8" r="51.1811" style=""/>
<circle cx="4679.37" cy="7454.25" r="51.1811" style=""/>
<circle cx="4679.37" cy="8044.8" r="51.1811" style=""/>
<circle cx="4679.37" cy="8519.53" r="51.1811" style=""/>
<circle cx="4679.37" cy="9110.08" r="51.1811" style=""/>
<circle cx="4679.37" cy="9584.25" r="51.1811" style=""/>
<circle cx="4679.37" cy="10174.8" r="51.1811" style=""/>
<circle cx="4678.19" cy="10646" r="51.1811" style=""/>
<circle cx="4678.19" cy="11236.5" r="51.1811" style=""/>
</svg>
