<?xml version="1.0" standalone="no"?>
<!DOCTYPE svg PUBLIC "-//W3C//DTD SVG 1.1//EN"
"http://www.w3.org/Graphics/SVG/1.1/DTD/svg11.dtd">
<svg width="402.52" height="629.291" viewBox="0 0 8385.83 13110.2" version="1.1"
xmlns="http://www.w3.org/2000/svg"
xmlns:xlink="http://www.w3.org/1999/xlink">
<g fill-rule="evenodd"><path d="M 9.09495e-13,13110.2 L 9.09495e-13,2.27374e-13 L 8385.83,2.27374e-13 L 8385.83,13110.2 L 9.09495e-13,13110.2 z " style="fill-opacity:0.200000;fill:rgb(103,198,105);"/></g>
<polyline points="137.793,12854.3 140.063,12877.4 146.785,12899.5 157.699,12919.9 172.387,12937.8 190.285,12952.5 210.705,12963.4 232.861,12970.2 255.905,12972.4 8129.92,12972.4 8152.96,12970.2 8175.12,12963.4 8195.54,12952.5 8213.44,12937.8 8228.12,12919.9 8239.04,12899.5 8245.76,12877.4 8248.03,12854.3 8248.03,255.905 8245.76,232.861 8239.04,210.705 8228.12,190.285 8213.44,172.387 8195.54,157.699 8175.12,146.785 8152.96,140.063 8129.92,137.793 255.905,137.793 232.861,140.063 210.705,146.785 190.285,157.699 172.387,172.387 157.699,190.285 146.785,210.705 140.063,232.861 137.793,255.905 137.793,12854.3" style="stroke:rgb(103,198,105);stroke-width:236.220472;fill:none;stroke-opacity:0.5;stroke-linecap:round;stroke-linejoin:round;;fill:none"/>
<polyline points="137.793,12854.3 140.063,12877.4 146.785,12899.5 157.699,12919.9 172.387,12937.8 190.285,12952.5 210.705,12963.4 232.861,12970.2 255.905,12972.4 8129.92,12972.4 8152.96,12970.2 8175.12,12963.4 8195.54,12952.5 8213.44,12937.8 8228.12,12919.9 8239.04,12899.5 8245.76,12877.4 8248.03,12854.3 8248.03,255.905 8245.76,232.861 8239.04,210.705 8228.12,190.285 8213.44,172.387 8195.54,157.699 8175.12,146.785 8152.96,140.063 8129.92,137.793 255.905,137.793 232.861,140.063 210.705,146.785 190.285,157.699 172.387,172.387 157.699,190.285 146.785,210.705 140.063,232.861 137.793,255.905 137.793,12854.3" style="stroke:rgb(0,0,0);stroke-width:1px;fill:none;stroke-opacity:1;stroke-linecap:round;stroke-linejoin:round;;fill:none"/>
<g fill-rule="evenodd"><path d="M 255.905,12854.3 L 255.905,255.905 L 8129.92,255.905 L 8129.92,12854.3 L 255.905,12854.3 z " style="fill-opacity:1.000000;fill:rgb(103,198,105);stroke:rgb(0,0,0);stroke-width:2"/></g>
</svg>
